<svg width="628" height="288" viewBox="0 0 628 288" fill="none" xmlns="http://www.w3.org/2000/svg">
<g filter="url(#filter0_d_7_194)">
<rect x="8" y="8" width="608" height="268" rx="5" fill="white"/>
</g>
<path d="M279.017 39H276.381L280.398 27.3636H283.568L287.58 39H284.943L282.028 30.0227H281.938L279.017 39ZM278.852 34.4261H285.08V36.3466H278.852V34.4261ZM291.355 33.9545V39H288.935V30.2727H291.241V31.8125H291.344C291.537 31.3049 291.861 30.9034 292.315 30.608C292.77 30.3087 293.321 30.1591 293.969 30.1591C294.575 30.1591 295.103 30.2917 295.554 30.5568C296.005 30.822 296.355 31.2008 296.605 31.6932C296.855 32.1818 296.98 32.7652 296.98 33.4432V39H294.56V33.875C294.563 33.3409 294.427 32.9242 294.151 32.625C293.874 32.322 293.493 32.1705 293.009 32.1705C292.683 32.1705 292.395 32.2405 292.145 32.3807C291.899 32.5208 291.705 32.7254 291.565 32.9943C291.429 33.2595 291.359 33.5795 291.355 33.9545ZM302.831 39.1705C301.948 39.1705 301.185 38.983 300.541 38.608C299.901 38.2292 299.407 37.7027 299.058 37.0284C298.71 36.3504 298.536 35.5644 298.536 34.6705C298.536 33.7689 298.71 32.9811 299.058 32.3068C299.407 31.6288 299.901 31.1023 300.541 30.7273C301.185 30.3485 301.948 30.1591 302.831 30.1591C303.714 30.1591 304.475 30.3485 305.115 30.7273C305.759 31.1023 306.255 31.6288 306.604 32.3068C306.952 32.9811 307.126 33.7689 307.126 34.6705C307.126 35.5644 306.952 36.3504 306.604 37.0284C306.255 37.7027 305.759 38.2292 305.115 38.608C304.475 38.983 303.714 39.1705 302.831 39.1705ZM302.842 37.2955C303.244 37.2955 303.579 37.1818 303.848 36.9545C304.117 36.7235 304.32 36.4091 304.456 36.0114C304.596 35.6136 304.666 35.161 304.666 34.6534C304.666 34.1458 304.596 33.6932 304.456 33.2955C304.32 32.8977 304.117 32.5833 303.848 32.3523C303.579 32.1212 303.244 32.0057 302.842 32.0057C302.437 32.0057 302.096 32.1212 301.82 32.3523C301.547 32.5833 301.34 32.8977 301.2 33.2955C301.064 33.6932 300.996 34.1458 300.996 34.6534C300.996 35.161 301.064 35.6136 301.2 36.0114C301.34 36.4091 301.547 36.7235 301.82 36.9545C302.096 37.1818 302.437 37.2955 302.842 37.2955ZM313.768 26.8182L310.018 40.75H307.933L311.683 26.8182H313.768ZM314.935 39V30.2727H317.241V31.8125H317.344C317.526 31.3011 317.829 30.8977 318.253 30.6023C318.677 30.3068 319.185 30.1591 319.776 30.1591C320.374 30.1591 320.884 30.3087 321.304 30.608C321.724 30.9034 322.005 31.3049 322.145 31.8125H322.236C322.414 31.3125 322.736 30.9129 323.202 30.6136C323.671 30.3106 324.226 30.1591 324.866 30.1591C325.681 30.1591 326.342 30.4186 326.849 30.9375C327.361 31.4527 327.616 32.1837 327.616 33.1307V39H325.202V33.608C325.202 33.1231 325.073 32.7595 324.815 32.517C324.558 32.2746 324.236 32.1534 323.849 32.1534C323.41 32.1534 323.067 32.2936 322.821 32.5739C322.575 32.8504 322.452 33.2159 322.452 33.6705V39H320.105V33.5568C320.105 33.1288 319.982 32.7879 319.736 32.5341C319.493 32.2803 319.173 32.1534 318.776 32.1534C318.507 32.1534 318.264 32.2216 318.048 32.358C317.836 32.4905 317.668 32.678 317.543 32.9205C317.418 33.1591 317.355 33.4394 317.355 33.7614V39H314.935ZM333.506 39.1705C332.608 39.1705 331.835 38.9886 331.188 38.625C330.544 38.2576 330.047 37.7386 329.699 37.0682C329.35 36.3939 329.176 35.5966 329.176 34.6761C329.176 33.7784 329.35 32.9905 329.699 32.3125C330.047 31.6345 330.538 31.1061 331.17 30.7273C331.807 30.3485 332.553 30.1591 333.409 30.1591C333.985 30.1591 334.521 30.2519 335.017 30.4375C335.517 30.6193 335.953 30.8939 336.324 31.2614C336.699 31.6288 336.991 32.0909 337.199 32.6477C337.407 33.2008 337.511 33.8485 337.511 34.5909V35.2557H330.142V33.7557H335.233C335.233 33.4072 335.157 33.0985 335.006 32.8295C334.854 32.5606 334.644 32.3504 334.375 32.1989C334.11 32.0436 333.801 31.9659 333.449 31.9659C333.081 31.9659 332.756 32.0511 332.472 32.2216C332.191 32.3883 331.972 32.6136 331.812 32.8977C331.653 33.178 331.572 33.4905 331.568 33.8352V35.2614C331.568 35.6932 331.648 36.0663 331.807 36.3807C331.97 36.6951 332.199 36.9375 332.494 37.108C332.79 37.2784 333.14 37.3636 333.545 37.3636C333.814 37.3636 334.061 37.3258 334.284 37.25C334.508 37.1742 334.699 37.0606 334.858 36.9091C335.017 36.7576 335.138 36.572 335.222 36.3523L337.46 36.5C337.347 37.0379 337.114 37.5076 336.761 37.9091C336.413 38.3068 335.962 38.6174 335.409 38.8409C334.86 39.0606 334.225 39.1705 333.506 39.1705ZM334.494 29.2273L333.352 27.8409L332.21 29.2273H330.148V29.1477L332.449 26.6477H334.25L336.557 29.1477V29.2273H334.494ZM346.352 32.7614L344.136 32.8977C344.098 32.7083 344.017 32.5379 343.892 32.3864C343.767 32.2311 343.602 32.108 343.398 32.017C343.197 31.9223 342.956 31.875 342.676 31.875C342.301 31.875 341.985 31.9545 341.727 32.1136C341.47 32.2689 341.341 32.4773 341.341 32.7386C341.341 32.947 341.424 33.1231 341.591 33.267C341.758 33.411 342.044 33.5265 342.449 33.6136L344.028 33.9318C344.877 34.1061 345.509 34.3864 345.926 34.7727C346.343 35.1591 346.551 35.6667 346.551 36.2955C346.551 36.8674 346.383 37.3693 346.045 37.8011C345.712 38.233 345.254 38.5701 344.67 38.8125C344.091 39.0511 343.422 39.1705 342.665 39.1705C341.509 39.1705 340.589 38.9299 339.903 38.4489C339.222 37.964 338.822 37.3049 338.705 36.4716L341.085 36.3466C341.157 36.6989 341.331 36.9678 341.608 37.1534C341.884 37.3352 342.239 37.4261 342.67 37.4261C343.095 37.4261 343.436 37.3447 343.693 37.1818C343.955 37.0152 344.087 36.8011 344.091 36.5398C344.087 36.3201 343.994 36.1402 343.812 36C343.631 35.8561 343.35 35.7462 342.972 35.6705L341.46 35.3693C340.608 35.1989 339.973 34.9034 339.557 34.483C339.144 34.0625 338.938 33.5265 338.938 32.875C338.938 32.3144 339.089 31.8314 339.392 31.4261C339.699 31.0208 340.129 30.7083 340.682 30.4886C341.239 30.2689 341.89 30.1591 342.636 30.1591C343.739 30.1591 344.606 30.392 345.239 30.858C345.875 31.3239 346.246 31.9583 346.352 32.7614Z" fill="#4157AF"/>
<path d="M44.3746 186.204H612" stroke="black"/>
<path d="M66.2063 190.577V186.204" stroke="black"/>
<path d="M66.2063 208.907C65.5643 208.907 65.0174 208.732 64.5657 208.382C64.114 208.03 63.7688 207.52 63.5302 206.853C63.2916 206.182 63.1722 205.373 63.1722 204.424C63.1722 203.48 63.2916 202.675 63.5302 202.007C63.7717 201.337 64.1183 200.826 64.57 200.473C65.0245 200.118 65.57 199.941 66.2063 199.941C66.8427 199.941 67.3867 200.118 67.8384 200.473C68.293 200.826 68.6396 201.337 68.8782 202.007C69.1197 202.675 69.2404 203.48 69.2404 204.424C69.2404 205.373 69.1211 206.182 68.8825 206.853C68.6438 207.52 68.2987 208.03 67.847 208.382C67.3953 208.732 66.8484 208.907 66.2063 208.907ZM66.2063 207.969C66.8427 207.969 67.337 207.662 67.6893 207.049C68.0416 206.435 68.2177 205.56 68.2177 204.424C68.2177 203.668 68.1367 203.024 67.9748 202.493C67.8157 201.962 67.5856 201.557 67.2845 201.279C66.9862 201 66.6268 200.861 66.2063 200.861C65.5757 200.861 65.0828 201.172 64.7276 201.794C64.3725 202.414 64.195 203.29 64.195 204.424C64.195 205.179 64.2745 205.821 64.4336 206.35C64.5927 206.878 64.8214 207.28 65.1197 207.556C65.4208 207.831 65.783 207.969 66.2063 207.969Z" fill="black"/>
<path d="M109.87 190.577V186.204" stroke="black"/>
<path d="M111.052 200.06V208.787H109.996V201.168H109.944L107.814 202.583V201.509L109.996 200.06H111.052Z" fill="black"/>
<path d="M153.533 190.577V186.204" stroke="black"/>
<path d="M150.804 208.787V208.02L153.685 204.867C154.023 204.498 154.301 204.176 154.52 203.904C154.739 203.628 154.901 203.37 155.006 203.128C155.114 202.884 155.168 202.628 155.168 202.361C155.168 202.054 155.094 201.789 154.946 201.564C154.801 201.34 154.602 201.167 154.349 201.044C154.097 200.922 153.812 200.861 153.497 200.861C153.162 200.861 152.869 200.931 152.619 201.07C152.372 201.206 152.18 201.398 152.044 201.645C151.91 201.892 151.844 202.182 151.844 202.515H150.838C150.838 202.003 150.956 201.554 151.192 201.168C151.428 200.782 151.749 200.48 152.155 200.265C152.564 200.049 153.023 199.941 153.531 199.941C154.043 199.941 154.496 200.049 154.891 200.265C155.285 200.48 155.595 200.772 155.82 201.138C156.044 201.505 156.156 201.912 156.156 202.361C156.156 202.682 156.098 202.996 155.981 203.303C155.868 203.607 155.669 203.946 155.385 204.321C155.104 204.694 154.713 205.148 154.213 205.685L152.253 207.782V207.85H156.31V208.787H150.804Z" fill="black"/>
<path d="M197.197 190.577V186.204" stroke="black"/>
<path d="M197.229 208.907C196.666 208.907 196.165 208.81 195.725 208.617C195.287 208.424 194.939 208.155 194.681 207.811C194.425 207.465 194.286 207.063 194.263 206.605H195.337C195.359 206.887 195.456 207.13 195.627 207.334C195.797 207.536 196.02 207.692 196.296 207.803C196.571 207.914 196.877 207.969 197.212 207.969C197.587 207.969 197.919 207.904 198.209 207.773C198.499 207.642 198.726 207.461 198.891 207.228C199.056 206.995 199.138 206.725 199.138 206.418C199.138 206.097 199.058 205.814 198.899 205.57C198.74 205.323 198.507 205.13 198.2 204.99C197.894 204.851 197.519 204.782 197.075 204.782H196.377V203.844H197.075C197.422 203.844 197.726 203.782 197.987 203.657C198.252 203.532 198.458 203.355 198.605 203.128C198.756 202.901 198.831 202.634 198.831 202.327C198.831 202.032 198.766 201.774 198.635 201.556C198.504 201.337 198.32 201.167 198.081 201.044C197.845 200.922 197.567 200.861 197.246 200.861C196.945 200.861 196.661 200.917 196.394 201.027C196.129 201.135 195.913 201.293 195.746 201.5C195.578 201.705 195.487 201.952 195.473 202.242H194.45C194.467 201.784 194.605 201.384 194.864 201.04C195.122 200.694 195.46 200.424 195.878 200.23C196.298 200.037 196.76 199.941 197.263 199.941C197.803 199.941 198.266 200.05 198.652 200.269C199.038 200.485 199.335 200.77 199.543 201.125C199.75 201.48 199.854 201.864 199.854 202.276C199.854 202.767 199.725 203.186 199.466 203.533C199.21 203.88 198.862 204.12 198.422 204.253V204.321C198.973 204.412 199.404 204.647 199.713 205.024C200.023 205.399 200.178 205.864 200.178 206.418C200.178 206.892 200.048 207.319 199.79 207.696C199.534 208.071 199.185 208.367 198.742 208.583C198.298 208.799 197.794 208.907 197.229 208.907Z" fill="black"/>
<path d="M240.86 190.577V186.204" stroke="black"/>
<path d="M237.71 206.998V206.128L241.545 200.06H242.175V201.407H241.749L238.852 205.992V206.06H244.016V206.998H237.71ZM241.818 208.787V206.733V206.328V200.06H242.823V208.787H241.818Z" fill="black"/>
<path d="M284.524 190.577V186.204" stroke="black"/>
<path d="M284.504 208.907C284.004 208.907 283.554 208.807 283.153 208.608C282.753 208.409 282.432 208.137 282.19 207.79C281.949 207.444 281.817 207.049 281.794 206.605H282.817C282.856 207 283.035 207.327 283.354 207.586C283.675 207.841 284.058 207.969 284.504 207.969C284.862 207.969 285.18 207.885 285.459 207.718C285.74 207.55 285.96 207.32 286.119 207.027C286.281 206.732 286.362 206.398 286.362 206.026C286.362 205.645 286.278 205.306 286.111 205.007C285.946 204.706 285.719 204.469 285.429 204.296C285.139 204.123 284.808 204.034 284.436 204.032C284.169 204.029 283.895 204.07 283.613 204.155C283.332 204.238 283.101 204.344 282.919 204.475L281.93 204.355L282.459 200.06H286.993V200.998H283.345L283.038 203.571H283.089C283.268 203.429 283.493 203.311 283.763 203.218C284.033 203.124 284.314 203.077 284.606 203.077C285.14 203.077 285.616 203.205 286.034 203.461C286.454 203.713 286.784 204.06 287.023 204.5C287.264 204.941 287.385 205.444 287.385 206.009C287.385 206.566 287.26 207.063 287.01 207.5C286.763 207.935 286.422 208.279 285.987 208.532C285.552 208.782 285.058 208.907 284.504 208.907Z" fill="black"/>
<path d="M328.187 190.577V186.204" stroke="black"/>
<path d="M328.244 208.907C327.886 208.901 327.528 208.833 327.17 208.702C326.812 208.571 326.486 208.351 326.19 208.042C325.895 207.729 325.658 207.307 325.479 206.776C325.3 206.242 325.21 205.571 325.21 204.765C325.21 203.992 325.283 203.307 325.428 202.711C325.572 202.111 325.783 201.607 326.058 201.198C326.334 200.786 326.666 200.473 327.055 200.26C327.447 200.047 327.889 199.941 328.381 199.941C328.869 199.941 329.304 200.039 329.685 200.235C330.068 200.428 330.381 200.698 330.622 201.044C330.864 201.391 331.02 201.79 331.091 202.242H330.051C329.955 201.85 329.767 201.524 329.489 201.266C329.21 201.007 328.841 200.878 328.381 200.878C327.705 200.878 327.172 201.172 326.783 201.76C326.396 202.348 326.202 203.174 326.199 204.236H326.267C326.426 203.995 326.615 203.789 326.834 203.618C327.055 203.445 327.3 203.311 327.567 203.218C327.834 203.124 328.116 203.077 328.415 203.077C328.915 203.077 329.372 203.202 329.787 203.452C330.202 203.699 330.534 204.042 330.784 204.479C331.034 204.914 331.159 205.412 331.159 205.975C331.159 206.515 331.038 207.009 330.797 207.458C330.555 207.904 330.216 208.259 329.778 208.523C329.344 208.784 328.832 208.912 328.244 208.907ZM328.244 207.969C328.602 207.969 328.923 207.88 329.207 207.701C329.494 207.522 329.72 207.282 329.885 206.98C330.053 206.679 330.136 206.344 330.136 205.975C330.136 205.614 330.055 205.286 329.893 204.99C329.734 204.692 329.514 204.455 329.233 204.279C328.955 204.103 328.636 204.015 328.278 204.015C328.008 204.015 327.757 204.069 327.524 204.176C327.291 204.282 327.087 204.426 326.91 204.611C326.737 204.796 326.601 205.007 326.501 205.246C326.402 205.482 326.352 205.73 326.352 205.992C326.352 206.338 326.433 206.662 326.595 206.963C326.76 207.265 326.984 207.507 327.268 207.692C327.555 207.877 327.881 207.969 328.244 207.969Z" fill="black"/>
<path d="M371.851 190.577V186.204" stroke="black"/>
<path d="M369.599 208.787L373.503 201.066V200.998H369.003V200.06H374.594V201.049L370.707 208.787H369.599Z" fill="black"/>
<path d="M415.514 190.577V186.204" stroke="black"/>
<path d="M415.516 208.907C414.931 208.907 414.414 208.803 413.965 208.596C413.519 208.385 413.171 208.097 412.921 207.73C412.671 207.361 412.547 206.941 412.55 206.469C412.547 206.1 412.62 205.759 412.767 205.446C412.915 205.131 413.117 204.868 413.372 204.658C413.631 204.445 413.919 204.31 414.237 204.253V204.202C413.82 204.094 413.487 203.86 413.24 203.499C412.993 203.135 412.871 202.722 412.874 202.259C412.871 201.816 412.983 201.419 413.21 201.07C413.438 200.721 413.75 200.445 414.148 200.243C414.549 200.042 415.005 199.941 415.516 199.941C416.022 199.941 416.473 200.042 416.871 200.243C417.269 200.445 417.581 200.721 417.809 201.07C418.039 201.419 418.155 201.816 418.158 202.259C418.155 202.722 418.029 203.135 417.779 203.499C417.532 203.86 417.203 204.094 416.794 204.202V204.253C417.11 204.31 417.394 204.445 417.647 204.658C417.899 204.868 418.101 205.131 418.252 205.446C418.402 205.759 418.479 206.1 418.482 206.469C418.479 206.941 418.351 207.361 418.098 207.73C417.848 208.097 417.5 208.385 417.054 208.596C416.611 208.803 416.098 208.907 415.516 208.907ZM415.516 207.969C415.911 207.969 416.252 207.905 416.539 207.777C416.826 207.649 417.047 207.469 417.203 207.236C417.36 207.003 417.439 206.73 417.442 206.418C417.439 206.088 417.354 205.797 417.186 205.544C417.019 205.292 416.79 205.093 416.5 204.948C416.213 204.803 415.885 204.73 415.516 204.73C415.144 204.73 414.811 204.803 414.519 204.948C414.229 205.093 414 205.292 413.833 205.544C413.668 205.797 413.587 206.088 413.59 206.418C413.587 206.73 413.662 207.003 413.816 207.236C413.972 207.469 414.195 207.649 414.485 207.777C414.774 207.905 415.118 207.969 415.516 207.969ZM415.516 203.827C415.828 203.827 416.105 203.765 416.347 203.64C416.591 203.515 416.783 203.34 416.922 203.115C417.061 202.891 417.132 202.628 417.135 202.327C417.132 202.032 417.063 201.774 416.926 201.556C416.79 201.334 416.601 201.164 416.36 201.044C416.118 200.922 415.837 200.861 415.516 200.861C415.189 200.861 414.904 200.922 414.659 201.044C414.415 201.164 414.226 201.334 414.093 201.556C413.959 201.774 413.894 202.032 413.897 202.327C413.894 202.628 413.96 202.891 414.097 203.115C414.236 203.34 414.428 203.515 414.672 203.64C414.916 203.765 415.198 203.827 415.516 203.827Z" fill="black"/>
<path d="M459.178 190.577V186.204" stroke="black"/>
<path d="M459.115 199.941C459.473 199.944 459.831 200.012 460.189 200.145C460.547 200.279 460.874 200.5 461.169 200.81C461.465 201.117 461.702 201.536 461.881 202.067C462.06 202.598 462.15 203.265 462.15 204.066C462.15 204.841 462.076 205.53 461.928 206.132C461.783 206.732 461.573 207.238 461.297 207.649C461.025 208.061 460.692 208.374 460.3 208.587C459.911 208.8 459.471 208.907 458.979 208.907C458.49 208.907 458.054 208.81 457.671 208.617C457.29 208.421 456.978 208.149 456.733 207.803C456.492 207.453 456.337 207.049 456.269 206.588H457.309C457.402 206.989 457.588 207.32 457.867 207.581C458.148 207.84 458.519 207.969 458.979 207.969C459.652 207.969 460.184 207.675 460.573 207.087C460.965 206.499 461.161 205.668 461.161 204.594H461.093C460.934 204.833 460.745 205.039 460.526 205.212C460.307 205.385 460.064 205.519 459.797 205.613C459.53 205.706 459.246 205.753 458.945 205.753C458.445 205.753 457.986 205.63 457.569 205.382C457.154 205.132 456.821 204.79 456.571 204.355C456.324 203.918 456.201 203.418 456.201 202.855C456.201 202.321 456.32 201.833 456.559 201.39C456.8 200.944 457.138 200.588 457.573 200.324C458.01 200.06 458.525 199.932 459.115 199.941ZM459.115 200.878C458.758 200.878 458.435 200.968 458.148 201.147C457.864 201.323 457.638 201.561 457.471 201.863C457.306 202.161 457.223 202.492 457.223 202.855C457.223 203.219 457.303 203.55 457.462 203.848C457.624 204.144 457.844 204.38 458.123 204.556C458.404 204.729 458.723 204.816 459.081 204.816C459.351 204.816 459.603 204.763 459.836 204.658C460.069 204.55 460.272 204.404 460.445 204.219C460.621 204.032 460.759 203.82 460.858 203.584C460.958 203.346 461.008 203.097 461.008 202.838C461.008 202.498 460.925 202.178 460.76 201.88C460.598 201.581 460.374 201.34 460.087 201.155C459.803 200.971 459.479 200.878 459.115 200.878Z" fill="black"/>
<path d="M502.841 190.577V186.204" stroke="black"/>
<path d="M500.274 200.06V208.787H499.217V201.168H499.166L497.035 202.583V201.509L499.217 200.06H500.274ZM505.63 208.907C504.988 208.907 504.441 208.732 503.99 208.382C503.538 208.03 503.193 207.52 502.954 206.853C502.716 206.182 502.596 205.373 502.596 204.424C502.596 203.48 502.716 202.675 502.954 202.007C503.196 201.337 503.542 200.826 503.994 200.473C504.449 200.118 504.994 199.941 505.63 199.941C506.267 199.941 506.811 200.118 507.262 200.473C507.717 200.826 508.064 201.337 508.302 202.007C508.544 202.675 508.664 203.48 508.664 204.424C508.664 205.373 508.545 206.182 508.306 206.853C508.068 207.52 507.723 208.03 507.271 208.382C506.819 208.732 506.272 208.907 505.63 208.907ZM505.63 207.969C506.267 207.969 506.761 207.662 507.113 207.049C507.466 206.435 507.642 205.56 507.642 204.424C507.642 203.668 507.561 203.024 507.399 202.493C507.24 201.962 507.01 201.557 506.708 201.279C506.41 201 506.051 200.861 505.63 200.861C505 200.861 504.507 201.172 504.152 201.794C503.797 202.414 503.619 203.29 503.619 204.424C503.619 205.179 503.699 205.821 503.858 206.35C504.017 206.878 504.245 207.28 504.544 207.556C504.845 207.831 505.207 207.969 505.63 207.969Z" fill="black"/>
<path d="M546.505 190.577V186.204" stroke="black"/>
<path d="M544.898 200.06V208.787H543.841V201.168H543.79L541.66 202.583V201.509L543.841 200.06H544.898ZM550.476 200.06V208.787H549.42V201.168H549.368L547.238 202.583V201.509L549.42 200.06H550.476Z" fill="black"/>
<path d="M590.168 190.577V186.204" stroke="black"/>
<path d="M591.351 200.06V208.787H590.294V201.168H590.243L588.112 202.583V201.509L590.294 200.06H591.351ZM587.439 223.787V223.02L590.319 219.867C590.658 219.498 590.936 219.176 591.155 218.904C591.373 218.628 591.535 218.37 591.64 218.128C591.748 217.884 591.802 217.628 591.802 217.361C591.802 217.054 591.729 216.789 591.581 216.564C591.436 216.34 591.237 216.167 590.984 216.044C590.731 215.922 590.447 215.861 590.132 215.861C589.797 215.861 589.504 215.931 589.254 216.07C589.007 216.206 588.815 216.398 588.679 216.645C588.545 216.892 588.479 217.182 588.479 217.515H587.473C587.473 217.003 587.591 216.554 587.827 216.168C588.062 215.782 588.383 215.48 588.79 215.265C589.199 215.049 589.658 214.941 590.166 214.941C590.677 214.941 591.131 215.049 591.525 215.265C591.92 215.48 592.23 215.772 592.454 216.138C592.679 216.505 592.791 216.912 592.791 217.361C592.791 217.682 592.733 217.996 592.616 218.303C592.503 218.607 592.304 218.946 592.02 219.321C591.739 219.694 591.348 220.148 590.848 220.685L588.888 222.782V222.85H592.944V223.787H587.439Z" fill="black"/>
<path d="M44.3746 69.5836V186.204" stroke="black"/>
<path d="M38.6794 186.204H44.3746" stroke="black"/>
<path d="M30.1833 192.682C29.5413 192.682 28.9944 192.507 28.5427 192.158C28.091 191.805 27.7458 191.295 27.5072 190.628C27.2686 189.957 27.1493 189.148 27.1493 188.199C27.1493 187.256 27.2686 186.45 27.5072 185.783C27.7487 185.112 28.0953 184.601 28.547 184.249C29.0015 183.893 29.547 183.716 30.1833 183.716C30.8197 183.716 31.3637 183.893 31.8155 184.249C32.27 184.601 32.6166 185.112 32.8552 185.783C33.0967 186.45 33.2174 187.256 33.2174 188.199C33.2174 189.148 33.0981 189.957 32.8595 190.628C32.6208 191.295 32.2757 191.805 31.824 192.158C31.3723 192.507 30.8254 192.682 30.1833 192.682ZM30.1833 191.744C30.8197 191.744 31.314 191.437 31.6663 190.824C32.0186 190.21 32.1947 189.335 32.1947 188.199C32.1947 187.443 32.1137 186.8 31.9518 186.268C31.7927 185.737 31.5626 185.332 31.2615 185.054C30.9632 184.776 30.6038 184.636 30.1833 184.636C29.5527 184.636 29.0598 184.947 28.7047 185.57C28.3495 186.189 28.172 187.065 28.172 188.199C28.172 188.955 28.2515 189.597 28.4106 190.125C28.5697 190.653 28.7984 191.055 29.0967 191.331C29.3978 191.607 29.7601 191.744 30.1833 191.744Z" fill="black"/>
<path d="M38.6794 157.049H44.3746" stroke="black"/>
<path d="M27.5711 163.407V162.64L30.4518 159.487C30.7899 159.118 31.0683 158.797 31.287 158.524C31.5058 158.248 31.6677 157.99 31.7728 157.748C31.8808 157.504 31.9348 157.248 31.9348 156.981C31.9348 156.674 31.8609 156.409 31.7132 156.184C31.5683 155.96 31.3694 155.787 31.1166 155.664C30.8637 155.542 30.5796 155.481 30.2643 155.481C29.9291 155.481 29.6365 155.551 29.3865 155.69C29.1393 155.826 28.9475 156.018 28.8112 156.265C28.6777 156.513 28.6109 156.802 28.6109 157.135H27.6052C27.6052 156.623 27.7231 156.174 27.9589 155.788C28.1947 155.402 28.5157 155.101 28.922 154.885C29.3311 154.669 29.7899 154.561 30.2984 154.561C30.8098 154.561 31.2629 154.669 31.6578 154.885C32.0527 155.101 32.3623 155.392 32.5867 155.758C32.8112 156.125 32.9234 156.532 32.9234 156.981C32.9234 157.302 32.8652 157.616 32.7487 157.923C32.635 158.227 32.4362 158.566 32.1521 158.941C31.8708 159.314 31.4802 159.768 30.9802 160.305L29.02 162.402V162.47H33.0768V163.407H27.5711ZM30.2632 178.527C29.7632 178.527 29.313 178.427 28.9124 178.228C28.5118 178.03 28.1908 177.757 27.9493 177.41C27.7078 177.064 27.5757 176.669 27.553 176.226H28.5757C28.6155 176.62 28.7945 176.947 29.1127 177.206C29.4337 177.461 29.8172 177.589 30.2632 177.589C30.6212 177.589 30.9394 177.505 31.2178 177.338C31.499 177.17 31.7192 176.94 31.8783 176.647C32.0402 176.352 32.1212 176.018 32.1212 175.646C32.1212 175.265 32.0374 174.926 31.8698 174.628C31.705 174.326 31.4777 174.089 31.188 173.916C30.8982 173.743 30.5672 173.655 30.1951 173.652C29.928 173.649 29.6539 173.69 29.3726 173.775C29.0914 173.858 28.8598 173.964 28.678 174.095L27.6894 173.976L28.2178 169.68H32.7519V170.618H29.1041L28.7973 173.191H28.8485C29.0274 173.049 29.2519 172.932 29.5218 172.838C29.7916 172.744 30.0729 172.697 30.3655 172.697C30.8996 172.697 31.3755 172.825 31.7931 173.081C32.2135 173.334 32.5431 173.68 32.7817 174.12C33.0232 174.561 33.1439 175.064 33.1439 175.629C33.1439 176.186 33.0189 176.683 32.7689 177.12C32.5218 177.555 32.1809 177.899 31.7462 178.152C31.3115 178.402 30.8172 178.527 30.2632 178.527Z" fill="black"/>
<path d="M38.6794 127.894H44.3746" stroke="black"/>
<path d="M30.2632 134.372C29.7632 134.372 29.313 134.272 28.9124 134.073C28.5118 133.874 28.1908 133.602 27.9493 133.255C27.7078 132.909 27.5757 132.514 27.553 132.07H28.5757C28.6155 132.465 28.7945 132.792 29.1127 133.051C29.4337 133.306 29.8172 133.434 30.2632 133.434C30.6212 133.434 30.9394 133.35 31.2178 133.183C31.499 133.015 31.7192 132.785 31.8783 132.492C32.0402 132.197 32.1212 131.863 32.1212 131.491C32.1212 131.11 32.0374 130.771 31.8698 130.472C31.705 130.171 31.4777 129.934 31.188 129.761C30.8982 129.588 30.5672 129.499 30.1951 129.497C29.928 129.494 29.6539 129.535 29.3726 129.62C29.0914 129.703 28.8598 129.809 28.678 129.94L27.6894 129.82L28.2178 125.525H32.7519V126.463H29.1041L28.7973 129.036H28.8485C29.0274 128.894 29.2519 128.776 29.5218 128.683C29.7916 128.589 30.0729 128.542 30.3655 128.542C30.8996 128.542 31.3755 128.67 31.7931 128.926C32.2135 129.178 32.5431 129.525 32.7817 129.965C33.0232 130.406 33.1439 130.909 33.1439 131.474C33.1439 132.031 33.0189 132.528 32.7689 132.965C32.5218 133.4 32.1809 133.744 31.7462 133.997C31.3115 134.247 30.8172 134.372 30.2632 134.372ZM30.1833 149.372C29.5413 149.372 28.9944 149.197 28.5427 148.847C28.091 148.495 27.7458 147.985 27.5072 147.318C27.2686 146.647 27.1492 145.838 27.1492 144.889C27.1492 143.945 27.2686 143.14 27.5072 142.472C27.7487 141.802 28.0953 141.291 28.547 140.938C29.0015 140.583 29.547 140.406 30.1833 140.406C30.8197 140.406 31.3637 140.583 31.8154 140.938C32.27 141.291 32.6166 141.802 32.8552 142.472C33.0967 143.14 33.2174 143.945 33.2174 144.889C33.2174 145.838 33.0981 146.647 32.8595 147.318C32.6208 147.985 32.2757 148.495 31.824 148.847C31.3723 149.197 30.8254 149.372 30.1833 149.372ZM30.1833 148.434C30.8197 148.434 31.314 148.127 31.6663 147.514C32.0186 146.9 32.1947 146.025 32.1947 144.889C32.1947 144.133 32.1137 143.49 31.9518 142.958C31.7927 142.427 31.5626 142.022 31.2615 141.744C30.9632 141.465 30.6038 141.326 30.1833 141.326C29.5527 141.326 29.0598 141.637 28.7046 142.259C28.3495 142.879 28.172 143.755 28.172 144.889C28.172 145.644 28.2515 146.286 28.4106 146.815C28.5697 147.343 28.7984 147.745 29.0967 148.021C29.3978 148.296 29.76 148.434 30.1833 148.434Z" fill="black"/>
<path d="M38.6794 98.7387H44.3746" stroke="black"/>
<path d="M21.0704 105.097L24.9738 97.3756V97.3075H20.4738V96.37H26.0647V97.3586L22.1784 105.097H21.0704ZM30.2632 105.217C29.7632 105.217 29.313 105.117 28.9124 104.918C28.5118 104.719 28.1908 104.447 27.9493 104.1C27.7078 103.753 27.5757 103.359 27.553 102.915H28.5757C28.6155 103.31 28.7945 103.637 29.1127 103.896C29.4337 104.151 29.8172 104.279 30.2632 104.279C30.6212 104.279 30.9394 104.195 31.2178 104.028C31.499 103.86 31.7192 103.63 31.8783 103.337C32.0402 103.042 32.1212 102.708 32.1212 102.336C32.1212 101.955 32.0374 101.616 31.8698 101.317C31.705 101.016 31.4777 100.779 31.188 100.606C30.8982 100.432 30.5672 100.344 30.1951 100.342C29.928 100.339 29.6539 100.38 29.3726 100.465C29.0914 100.548 28.8598 100.654 28.678 100.785L27.6894 100.665L28.2178 96.37H32.7519V97.3075H29.1041L28.7973 99.8813H28.8485C29.0274 99.7393 29.2519 99.6214 29.5218 99.5276C29.7916 99.4339 30.0729 99.387 30.3655 99.387C30.8996 99.387 31.3755 99.5148 31.7931 99.7705C32.2135 100.023 32.5431 100.37 32.7817 100.81C33.0232 101.251 33.1439 101.753 33.1439 102.319C33.1439 102.876 33.0189 103.373 32.7689 103.81C32.5218 104.245 32.1809 104.589 31.7462 104.842C31.3115 105.092 30.8172 105.217 30.2632 105.217Z" fill="black"/>
<path d="M38.6794 69.5836H44.3746" stroke="black"/>
<path d="M24.8268 70.2727V79H23.77V71.3807H23.7188L21.5882 72.7955V71.7216L23.77 70.2727H24.8268ZM30.1833 79.1193C29.5413 79.1193 28.9944 78.9446 28.5427 78.5952C28.091 78.2429 27.7458 77.733 27.5072 77.0653C27.2686 76.3949 27.1492 75.5852 27.1492 74.6364C27.1492 73.6932 27.2686 72.8878 27.5072 72.2202C27.7487 71.5497 28.0953 71.0384 28.547 70.6861C29.0015 70.331 29.547 70.1534 30.1833 70.1534C30.8197 70.1534 31.3637 70.331 31.8154 70.6861C32.27 71.0384 32.6166 71.5497 32.8552 72.2202C33.0967 72.8878 33.2174 73.6932 33.2174 74.6364C33.2174 75.5852 33.0981 76.3949 32.8595 77.0653C32.6208 77.733 32.2757 78.2429 31.824 78.5952C31.3723 78.9446 30.8254 79.1193 30.1833 79.1193ZM30.1833 78.1818C30.8197 78.1818 31.314 77.875 31.6663 77.2614C32.0186 76.6477 32.1947 75.7727 32.1947 74.6364C32.1947 73.8807 32.1137 73.2372 31.9518 72.706C31.7927 72.1747 31.5626 71.7699 31.2615 71.4915C30.9632 71.2131 30.6038 71.0739 30.1833 71.0739C29.5527 71.0739 29.0598 71.3849 28.7046 72.0071C28.3495 72.6264 28.172 73.5028 28.172 74.6364C28.172 75.392 28.2515 76.0341 28.4106 76.5625C28.5697 77.0909 28.7984 77.4929 29.0967 77.7685C29.3978 78.044 29.76 78.1818 30.1833 78.1818ZM30.1833 94.1193C29.5413 94.1193 28.9944 93.9446 28.5427 93.5952C28.091 93.2429 27.7458 92.733 27.5072 92.0653C27.2686 91.3949 27.1492 90.5852 27.1492 89.6364C27.1492 88.6932 27.2686 87.8878 27.5072 87.2202C27.7487 86.5497 28.0953 86.0384 28.547 85.6861C29.0015 85.331 29.547 85.1534 30.1833 85.1534C30.8197 85.1534 31.3637 85.331 31.8154 85.6861C32.27 86.0384 32.6166 86.5497 32.8552 87.2202C33.0967 87.8878 33.2174 88.6932 33.2174 89.6364C33.2174 90.5852 33.0981 91.3949 32.8595 92.0653C32.6208 92.733 32.2757 93.2429 31.824 93.5952C31.3723 93.9446 30.8254 94.1193 30.1833 94.1193ZM30.1833 93.1818C30.8197 93.1818 31.314 92.875 31.6663 92.2614C32.0186 91.6477 32.1947 90.7727 32.1947 89.6364C32.1947 88.8807 32.1137 88.2372 31.9518 87.706C31.7927 87.1747 31.5626 86.7699 31.2615 86.4915C30.9632 86.2131 30.6038 86.0739 30.1833 86.0739C29.5527 86.0739 29.0598 86.3849 28.7046 87.0071C28.3495 87.6264 28.172 88.5028 28.172 89.6364C28.172 90.392 28.2515 91.0341 28.4106 91.5625C28.5697 92.0909 28.7984 92.4929 29.0967 92.7685C29.3978 93.044 29.76 93.1818 30.1833 93.1818Z" fill="black"/>
<path d="M44.3746 186.204H612" stroke="#CCCCCC"/>
<path d="M44.3746 157.049H612" stroke="#CCCCCC"/>
<path d="M44.3746 127.894H612" stroke="#CCCCCC"/>
<path d="M44.3746 98.7387H612" stroke="#CCCCCC"/>
<path d="M44.3746 69.5836H612" stroke="#CCCCCC"/>
<path d="M66.2064 69.5836V186.204" stroke="#CCCCCC"/>
<path d="M109.87 69.5836V186.204" stroke="#CCCCCC"/>
<path d="M153.533 69.5836V186.204" stroke="#CCCCCC"/>
<path d="M197.197 69.5836V186.204" stroke="#CCCCCC"/>
<path d="M240.86 69.5836V186.204" stroke="#CCCCCC"/>
<path d="M284.524 69.5836V186.204" stroke="#CCCCCC"/>
<path d="M328.187 69.5836V186.204" stroke="#CCCCCC"/>
<path d="M371.851 69.5836V186.204" stroke="#CCCCCC"/>
<path d="M415.514 69.5836V186.204" stroke="#CCCCCC"/>
<path d="M459.178 69.5836V186.204" stroke="#CCCCCC"/>
<path d="M502.841 69.5836V186.204" stroke="#CCCCCC"/>
<path d="M546.505 69.5836V186.204" stroke="#CCCCCC"/>
<path d="M590.168 69.5836V186.204" stroke="#CCCCCC"/>
<path d="M44.3746 69.5836V186.204" stroke="#CCCCCC"/>
<path d="M612 69.5836V186.204" stroke="#CCCCCC"/>
<path d="M48.741 179.207H82.9124V186.204H48.741V179.207Z" fill="#5B45CB"/>
<path d="M92.4044 108.068H126.576V186.204H92.4044V108.068Z" fill="#5B45CB"/>
<path d="M136.068 185.038H170.239V186.204H136.068V185.038Z" fill="#5B45CB"/>
<path d="M179.731 75.4146H213.903V186.204H179.731V75.4146Z" fill="#5B45CB"/>
<path d="M223.395 139.556H257.566V186.204H223.395V139.556Z" fill="#5B45CB"/>
<path d="M267.058 160.548H301.23V186.204H267.058V160.548Z" fill="#5B45CB"/>
<path d="M310.722 113.899H344.893V186.204H310.722V113.899Z" fill="#5B45CB"/>
<path d="M354.385 134.891H388.557V186.204H354.385V134.891Z" fill="#5B45CB"/>
<path d="M398.049 132.559H432.22V186.204H398.049V132.559Z" fill="#5B45CB"/>
<path d="M441.712 115.066H475.884V186.204H441.712V115.066Z" fill="#5B45CB"/>
<path d="M485.376 125.561H519.547V186.204H485.376V125.561Z" fill="#5B45CB"/>
<path d="M529.039 183.872H563.211V186.204H529.039V183.872Z" fill="#5B45CB"/>
<path d="M572.703 160.548H606.874V186.204H572.703V160.548Z" fill="#5B45CB"/>
<defs>
<filter id="filter0_d_7_194" x="0" y="0" width="628" height="288" filterUnits="userSpaceOnUse" color-interpolation-filters="sRGB">
<feFlood flood-opacity="0" result="BackgroundImageFix"/>
<feColorMatrix in="SourceAlpha" type="matrix" values="0 0 0 0 0 0 0 0 0 0 0 0 0 0 0 0 0 0 127 0" result="hardAlpha"/>
<feOffset dx="2" dy="2"/>
<feGaussianBlur stdDeviation="5"/>
<feComposite in2="hardAlpha" operator="out"/>
<feColorMatrix type="matrix" values="0 0 0 0 0 0 0 0 0 0 0 0 0 0 0 0 0 0 0.1 0"/>
<feBlend mode="normal" in2="BackgroundImageFix" result="effect1_dropShadow_7_194"/>
<feBlend mode="normal" in="SourceGraphic" in2="effect1_dropShadow_7_194" result="shape"/>
</filter>
</defs>
</svg>