<svg width="201" height="308" viewBox="0 0 201 308" fill="none" xmlns="http://www.w3.org/2000/svg">
<g filter="url(#filter0_d_19_1369)">
<rect x="8" y="8" width="181" height="288" rx="5" fill="#FEF3E5"/>
</g>
<path d="M75.0114 35V23.3636H82.7159V25.392H77.4716V28.1648H82.2045V30.1932H77.4716V35H75.0114ZM84.3253 35V26.2727H86.7457V35H84.3253ZM85.5412 25.1477C85.1813 25.1477 84.8726 25.0284 84.6151 24.7898C84.3613 24.5473 84.2344 24.2576 84.2344 23.9205C84.2344 23.5871 84.3613 23.3011 84.6151 23.0625C84.8726 22.8201 85.1813 22.6989 85.5412 22.6989C85.901 22.6989 86.2079 22.8201 86.4616 23.0625C86.7192 23.3011 86.848 23.5871 86.848 23.9205C86.848 24.2576 86.7192 24.5473 86.4616 24.7898C86.2079 25.0284 85.901 25.1477 85.5412 25.1477ZM91.1051 23.3636V35H88.6847V23.3636H91.1051ZM97.6861 26.2727V28.0909H92.4304V26.2727H97.6861ZM93.6236 24.1818H96.044V32.3182C96.044 32.5417 96.0781 32.7159 96.1463 32.8409C96.2145 32.9621 96.3092 33.0473 96.4304 33.0966C96.5554 33.1458 96.6993 33.1705 96.8622 33.1705C96.9759 33.1705 97.0895 33.161 97.2031 33.142C97.3168 33.1193 97.4039 33.1023 97.4645 33.0909L97.8452 34.892C97.724 34.9299 97.5535 34.9735 97.3338 35.0227C97.1141 35.0758 96.8471 35.108 96.5327 35.1193C95.9493 35.142 95.438 35.0644 94.9986 34.8864C94.563 34.7083 94.224 34.4318 93.9815 34.0568C93.7391 33.6818 93.6198 33.2083 93.6236 32.6364V24.1818ZM99.2628 35V26.2727H101.609V27.7955H101.7C101.859 27.2538 102.126 26.8447 102.501 26.5682C102.876 26.2879 103.308 26.1477 103.797 26.1477C103.918 26.1477 104.049 26.1553 104.189 26.1705C104.329 26.1856 104.452 26.2064 104.558 26.233V28.3807C104.445 28.3466 104.287 28.3163 104.087 28.2898C103.886 28.2633 103.702 28.25 103.536 28.25C103.179 28.25 102.861 28.3277 102.581 28.483C102.304 28.6345 102.085 28.8466 101.922 29.1193C101.763 29.392 101.683 29.7064 101.683 30.0625V35H99.2628ZM109.347 35.1705C108.464 35.1705 107.701 34.983 107.057 34.608C106.417 34.2292 105.922 33.7027 105.574 33.0284C105.225 32.3504 105.051 31.5644 105.051 30.6705C105.051 29.7689 105.225 28.9811 105.574 28.3068C105.922 27.6288 106.417 27.1023 107.057 26.7273C107.701 26.3485 108.464 26.1591 109.347 26.1591C110.229 26.1591 110.991 26.3485 111.631 26.7273C112.275 27.1023 112.771 27.6288 113.119 28.3068C113.468 28.9811 113.642 29.7689 113.642 30.6705C113.642 31.5644 113.468 32.3504 113.119 33.0284C112.771 33.7027 112.275 34.2292 111.631 34.608C110.991 34.983 110.229 35.1705 109.347 35.1705ZM109.358 33.2955C109.759 33.2955 110.095 33.1818 110.364 32.9545C110.633 32.7235 110.835 32.4091 110.972 32.0114C111.112 31.6136 111.182 31.161 111.182 30.6534C111.182 30.1458 111.112 29.6932 110.972 29.2955C110.835 28.8977 110.633 28.5833 110.364 28.3523C110.095 28.1212 109.759 28.0057 109.358 28.0057C108.953 28.0057 108.612 28.1212 108.335 28.3523C108.063 28.5833 107.856 28.8977 107.716 29.2955C107.58 29.6932 107.511 30.1458 107.511 30.6534C107.511 31.161 107.58 31.6136 107.716 32.0114C107.856 32.4091 108.063 32.7235 108.335 32.9545C108.612 33.1818 108.953 33.2955 109.358 33.2955ZM122.477 28.7614L120.261 28.8977C120.223 28.7083 120.142 28.5379 120.017 28.3864C119.892 28.2311 119.727 28.108 119.523 28.017C119.322 27.9223 119.081 27.875 118.801 27.875C118.426 27.875 118.11 27.9545 117.852 28.1136C117.595 28.2689 117.466 28.4773 117.466 28.7386C117.466 28.947 117.549 29.1231 117.716 29.267C117.883 29.411 118.169 29.5265 118.574 29.6136L120.153 29.9318C121.002 30.1061 121.634 30.3864 122.051 30.7727C122.468 31.1591 122.676 31.6667 122.676 32.2955C122.676 32.8674 122.508 33.3693 122.17 33.8011C121.837 34.233 121.379 34.5701 120.795 34.8125C120.216 35.0511 119.547 35.1705 118.79 35.1705C117.634 35.1705 116.714 34.9299 116.028 34.4489C115.347 33.964 114.947 33.3049 114.83 32.4716L117.21 32.3466C117.282 32.6989 117.456 32.9678 117.733 33.1534C118.009 33.3352 118.364 33.4261 118.795 33.4261C119.22 33.4261 119.561 33.3447 119.818 33.1818C120.08 33.0152 120.212 32.8011 120.216 32.5398C120.212 32.3201 120.119 32.1402 119.938 32C119.756 31.8561 119.475 31.7462 119.097 31.6705L117.585 31.3693C116.733 31.1989 116.098 30.9034 115.682 30.483C115.269 30.0625 115.062 29.5265 115.062 28.875C115.062 28.3144 115.214 27.8314 115.517 27.4261C115.824 27.0208 116.254 26.7083 116.807 26.4886C117.364 26.2689 118.015 26.1591 118.761 26.1591C119.864 26.1591 120.731 26.392 121.364 26.858C122 27.3239 122.371 27.9583 122.477 28.7614Z" fill="#4157AF"/>
<path d="M45.7727 199.614V198.364H54.5V199.614H50.8409V210H49.4318V199.614H45.7727ZM58.7727 210.182C57.9848 210.182 57.2936 209.994 56.6989 209.619C56.108 209.244 55.6458 208.72 55.3125 208.045C54.983 207.371 54.8182 206.583 54.8182 205.682C54.8182 204.773 54.983 203.979 55.3125 203.301C55.6458 202.623 56.108 202.097 56.6989 201.722C57.2936 201.347 57.9848 201.159 58.7727 201.159C59.5606 201.159 60.25 201.347 60.8409 201.722C61.4356 202.097 61.8977 202.623 62.2273 203.301C62.5606 203.979 62.7273 204.773 62.7273 205.682C62.7273 206.583 62.5606 207.371 62.2273 208.045C61.8977 208.72 61.4356 209.244 60.8409 209.619C60.25 209.994 59.5606 210.182 58.7727 210.182ZM58.7727 208.977C59.3712 208.977 59.8636 208.824 60.25 208.517C60.6364 208.21 60.9223 207.807 61.108 207.307C61.2936 206.807 61.3864 206.265 61.3864 205.682C61.3864 205.098 61.2936 204.555 61.108 204.051C60.9223 203.547 60.6364 203.14 60.25 202.83C59.8636 202.519 59.3712 202.364 58.7727 202.364C58.1742 202.364 57.6818 202.519 57.2955 202.83C56.9091 203.14 56.6231 203.547 56.4375 204.051C56.2519 204.555 56.1591 205.098 56.1591 205.682C56.1591 206.265 56.2519 206.807 56.4375 207.307C56.6231 207.807 56.9091 208.21 57.2955 208.517C57.6818 208.824 58.1742 208.977 58.7727 208.977ZM68.0696 210.182C67.3423 210.182 66.7003 209.998 66.1435 209.631C65.5866 209.259 65.151 208.737 64.8366 208.062C64.5223 207.384 64.3651 206.583 64.3651 205.659C64.3651 204.742 64.5223 203.947 64.8366 203.273C65.151 202.598 65.5885 202.078 66.1491 201.71C66.7098 201.343 67.3575 201.159 68.0923 201.159C68.6605 201.159 69.1094 201.254 69.4389 201.443C69.7723 201.629 70.026 201.841 70.2003 202.08C70.3783 202.314 70.5166 202.508 70.6151 202.659H70.7287V198.364H72.0696V210H70.7741V208.659H70.6151C70.5166 208.818 70.3764 209.019 70.1946 209.261C70.0128 209.5 69.7533 209.714 69.4162 209.903C69.0791 210.089 68.6302 210.182 68.0696 210.182ZM68.2514 208.977C68.7893 208.977 69.2438 208.837 69.6151 208.557C69.9863 208.273 70.2685 207.881 70.4616 207.381C70.6548 206.877 70.7514 206.295 70.7514 205.636C70.7514 204.985 70.6567 204.415 70.4673 203.926C70.2779 203.434 69.9976 203.051 69.6264 202.778C69.2552 202.502 68.7969 202.364 68.2514 202.364C67.6832 202.364 67.2098 202.509 66.831 202.801C66.456 203.089 66.1738 203.481 65.9844 203.977C65.7988 204.47 65.706 205.023 65.706 205.636C65.706 206.258 65.8007 206.822 65.9901 207.33C66.1832 207.833 66.4673 208.235 66.8423 208.534C67.2211 208.83 67.6908 208.977 68.2514 208.977ZM78.2571 210.182C77.4692 210.182 76.7779 209.994 76.1832 209.619C75.5923 209.244 75.1302 208.72 74.7969 208.045C74.4673 207.371 74.3026 206.583 74.3026 205.682C74.3026 204.773 74.4673 203.979 74.7969 203.301C75.1302 202.623 75.5923 202.097 76.1832 201.722C76.7779 201.347 77.4692 201.159 78.2571 201.159C79.045 201.159 79.7344 201.347 80.3253 201.722C80.92 202.097 81.3821 202.623 81.7116 203.301C82.045 203.979 82.2116 204.773 82.2116 205.682C82.2116 206.583 82.045 207.371 81.7116 208.045C81.3821 208.72 80.92 209.244 80.3253 209.619C79.7344 209.994 79.045 210.182 78.2571 210.182ZM78.2571 208.977C78.8556 208.977 79.348 208.824 79.7344 208.517C80.1207 208.21 80.4067 207.807 80.5923 207.307C80.7779 206.807 80.8707 206.265 80.8707 205.682C80.8707 205.098 80.7779 204.555 80.5923 204.051C80.4067 203.547 80.1207 203.14 79.7344 202.83C79.348 202.519 78.8556 202.364 78.2571 202.364C77.6586 202.364 77.1662 202.519 76.7798 202.83C76.3935 203.14 76.1075 203.547 75.9219 204.051C75.7363 204.555 75.6435 205.098 75.6435 205.682C75.6435 206.265 75.7363 206.807 75.9219 207.307C76.1075 207.807 76.3935 208.21 76.7798 208.517C77.1662 208.824 77.6586 208.977 78.2571 208.977ZM90.4403 203.227L89.2358 203.568C89.16 203.367 89.0483 203.172 88.9006 202.983C88.7566 202.79 88.5597 202.631 88.3097 202.506C88.0597 202.381 87.7396 202.318 87.3494 202.318C86.8153 202.318 86.3703 202.441 86.0142 202.688C85.6619 202.93 85.4858 203.239 85.4858 203.614C85.4858 203.947 85.607 204.21 85.8494 204.403C86.0919 204.597 86.4706 204.758 86.9858 204.886L88.2812 205.205C89.0616 205.394 89.643 205.684 90.0256 206.074C90.4081 206.46 90.5994 206.958 90.5994 207.568C90.5994 208.068 90.4555 208.515 90.1676 208.909C89.8835 209.303 89.4858 209.614 88.9744 209.841C88.4631 210.068 87.8684 210.182 87.1903 210.182C86.3002 210.182 85.5634 209.989 84.9801 209.602C84.3968 209.216 84.0275 208.652 83.8722 207.909L85.1449 207.591C85.2661 208.061 85.4953 208.413 85.8324 208.648C86.1733 208.883 86.6184 209 87.1676 209C87.7926 209 88.2888 208.867 88.6562 208.602C89.0275 208.333 89.2131 208.011 89.2131 207.636C89.2131 207.333 89.107 207.08 88.8949 206.875C88.6828 206.667 88.357 206.511 87.9176 206.409L86.4631 206.068C85.6638 205.879 85.0767 205.585 84.7017 205.188C84.3305 204.786 84.1449 204.284 84.1449 203.682C84.1449 203.189 84.2831 202.754 84.5597 202.375C84.84 201.996 85.2206 201.699 85.7017 201.483C86.1866 201.267 86.7358 201.159 87.3494 201.159C88.2131 201.159 88.8911 201.348 89.3835 201.727C89.8797 202.106 90.232 202.606 90.4403 203.227Z" fill="#4157AF"/>
<circle cx="33.5" cy="204.5" r="7" fill="#CCCCCC" stroke="#4157AF"/>
<path d="M55.7727 175H54.3636C54.2803 174.595 54.1345 174.239 53.9261 173.932C53.7216 173.625 53.4716 173.367 53.1761 173.159C52.8845 172.947 52.5606 172.788 52.2045 172.682C51.8485 172.576 51.4773 172.523 51.0909 172.523C50.3864 172.523 49.7481 172.701 49.1761 173.057C48.608 173.413 48.1553 173.938 47.8182 174.631C47.4848 175.324 47.3182 176.174 47.3182 177.182C47.3182 178.189 47.4848 179.04 47.8182 179.733C48.1553 180.426 48.608 180.951 49.1761 181.307C49.7481 181.663 50.3864 181.841 51.0909 181.841C51.4773 181.841 51.8485 181.788 52.2045 181.682C52.5606 181.576 52.8845 181.419 53.1761 181.21C53.4716 180.998 53.7216 180.739 53.9261 180.432C54.1345 180.121 54.2803 179.765 54.3636 179.364H55.7727C55.6667 179.958 55.4735 180.491 55.1932 180.96C54.9129 181.43 54.5644 181.83 54.1477 182.159C53.7311 182.485 53.2633 182.733 52.7443 182.903C52.2292 183.074 51.678 183.159 51.0909 183.159C50.0985 183.159 49.2159 182.917 48.4432 182.432C47.6705 181.947 47.0625 181.258 46.6193 180.364C46.1761 179.47 45.9545 178.409 45.9545 177.182C45.9545 175.955 46.1761 174.894 46.6193 174C47.0625 173.106 47.6705 172.417 48.4432 171.932C49.2159 171.447 50.0985 171.205 51.0909 171.205C51.678 171.205 52.2292 171.29 52.7443 171.46C53.2633 171.631 53.7311 171.881 54.1477 172.21C54.5644 172.536 54.9129 172.934 55.1932 173.403C55.4735 173.869 55.6667 174.402 55.7727 175ZM60.4361 183.205C59.883 183.205 59.3812 183.1 58.9304 182.892C58.4796 182.68 58.1217 182.375 57.8565 181.977C57.5914 181.576 57.4588 181.091 57.4588 180.523C57.4588 180.023 57.5573 179.617 57.7543 179.307C57.9512 178.992 58.2145 178.746 58.544 178.568C58.8736 178.39 59.2372 178.258 59.6349 178.17C60.0365 178.08 60.4399 178.008 60.8452 177.955C61.3755 177.886 61.8054 177.835 62.1349 177.801C62.4683 177.763 62.7107 177.701 62.8622 177.614C63.0175 177.527 63.0952 177.375 63.0952 177.159V177.114C63.0952 176.553 62.9418 176.117 62.6349 175.807C62.3319 175.496 61.8717 175.341 61.2543 175.341C60.6141 175.341 60.1122 175.481 59.7486 175.761C59.3849 176.042 59.1293 176.341 58.9815 176.659L57.7088 176.205C57.9361 175.674 58.2391 175.261 58.6179 174.966C59.0005 174.667 59.4171 174.458 59.8679 174.341C60.3224 174.22 60.7694 174.159 61.2088 174.159C61.4891 174.159 61.8111 174.193 62.1747 174.261C62.5421 174.326 62.8963 174.46 63.2372 174.665C63.5819 174.869 63.8679 175.178 64.0952 175.591C64.3224 176.004 64.4361 176.557 64.4361 177.25V183H63.0952V181.818H63.027C62.9361 182.008 62.7846 182.21 62.5724 182.426C62.3603 182.642 62.0781 182.826 61.7259 182.977C61.3736 183.129 60.9437 183.205 60.4361 183.205ZM60.6406 182C61.1709 182 61.6179 181.896 61.9815 181.688C62.349 181.479 62.6255 181.21 62.8111 180.881C63.0005 180.551 63.0952 180.205 63.0952 179.841V178.614C63.0384 178.682 62.9134 178.744 62.7202 178.801C62.5308 178.854 62.3111 178.902 62.0611 178.943C61.8149 178.981 61.5743 179.015 61.3395 179.045C61.1084 179.072 60.9209 179.095 60.777 179.114C60.4285 179.159 60.1027 179.233 59.7997 179.335C59.5005 179.434 59.258 179.583 59.0724 179.784C58.8906 179.981 58.7997 180.25 58.7997 180.591C58.7997 181.057 58.9721 181.409 59.3168 181.648C59.6652 181.883 60.1065 182 60.6406 182ZM70.429 183.182C69.6108 183.182 68.9063 182.989 68.3153 182.602C67.7244 182.216 67.2699 181.684 66.9517 181.006C66.6335 180.328 66.4744 179.553 66.4744 178.682C66.4744 177.795 66.6373 177.013 66.9631 176.335C67.2926 175.653 67.7509 175.121 68.3381 174.739C68.929 174.352 69.6184 174.159 70.4062 174.159C71.0199 174.159 71.5729 174.273 72.0653 174.5C72.5578 174.727 72.9612 175.045 73.2756 175.455C73.59 175.864 73.785 176.341 73.8608 176.886H72.5199C72.4176 176.489 72.1903 176.136 71.8381 175.83C71.4896 175.519 71.0199 175.364 70.429 175.364C69.9063 175.364 69.4479 175.5 69.054 175.773C68.6638 176.042 68.3589 176.422 68.1392 176.915C67.9233 177.403 67.8153 177.977 67.8153 178.636C67.8153 179.311 67.9214 179.898 68.1335 180.398C68.3494 180.898 68.6525 181.286 69.0426 181.562C69.4366 181.839 69.8987 181.977 70.429 181.977C70.7775 181.977 71.0938 181.917 71.3778 181.795C71.6619 181.674 71.9025 181.5 72.0994 181.273C72.2964 181.045 72.4366 180.773 72.5199 180.455H73.8608C73.785 180.97 73.5975 181.434 73.2983 181.847C73.0028 182.256 72.6108 182.581 72.1222 182.824C71.6373 183.062 71.0729 183.182 70.429 183.182ZM77.1619 177.75V183H75.821V171.364H77.1619V175.636H77.2756C77.4801 175.186 77.7869 174.828 78.196 174.562C78.6089 174.294 79.1581 174.159 79.8438 174.159C80.4384 174.159 80.9593 174.278 81.4062 174.517C81.8532 174.752 82.1998 175.114 82.446 175.602C82.696 176.087 82.821 176.705 82.821 177.455V183H81.4801V177.545C81.4801 176.852 81.3002 176.316 80.9403 175.938C80.5843 175.555 80.09 175.364 79.4574 175.364C79.018 175.364 78.6241 175.456 78.2756 175.642C77.9309 175.828 77.6581 176.098 77.4574 176.455C77.2604 176.811 77.1619 177.242 77.1619 177.75ZM88.8196 183.182C88.0317 183.182 87.3404 182.994 86.7457 182.619C86.1548 182.244 85.6927 181.72 85.3594 181.045C85.0298 180.371 84.8651 179.583 84.8651 178.682C84.8651 177.773 85.0298 176.979 85.3594 176.301C85.6927 175.623 86.1548 175.097 86.7457 174.722C87.3404 174.347 88.0317 174.159 88.8196 174.159C89.6075 174.159 90.2969 174.347 90.8878 174.722C91.4825 175.097 91.9446 175.623 92.2741 176.301C92.6075 176.979 92.7741 177.773 92.7741 178.682C92.7741 179.583 92.6075 180.371 92.2741 181.045C91.9446 181.72 91.4825 182.244 90.8878 182.619C90.2969 182.994 89.6075 183.182 88.8196 183.182ZM88.8196 181.977C89.4181 181.977 89.9105 181.824 90.2969 181.517C90.6832 181.21 90.9692 180.807 91.1548 180.307C91.3404 179.807 91.4332 179.265 91.4332 178.682C91.4332 178.098 91.3404 177.555 91.1548 177.051C90.9692 176.547 90.6832 176.14 90.2969 175.83C89.9105 175.519 89.4181 175.364 88.8196 175.364C88.2211 175.364 87.7287 175.519 87.3423 175.83C86.956 176.14 86.67 176.547 86.4844 177.051C86.2988 177.555 86.206 178.098 86.206 178.682C86.206 179.265 86.2988 179.807 86.4844 180.307C86.67 180.807 86.956 181.21 87.3423 181.517C87.7287 181.824 88.2211 181.977 88.8196 181.977ZM94.821 183V174.273H96.1165V175.591H96.2074C96.3665 175.159 96.6544 174.809 97.071 174.54C97.4877 174.271 97.9574 174.136 98.4801 174.136C98.5786 174.136 98.7017 174.138 98.8494 174.142C98.9972 174.146 99.1089 174.152 99.1847 174.159V175.523C99.1392 175.511 99.035 175.494 98.8722 175.472C98.7131 175.445 98.5445 175.432 98.3665 175.432C97.9422 175.432 97.5634 175.521 97.2301 175.699C96.9006 175.873 96.6392 176.116 96.446 176.426C96.2566 176.733 96.1619 177.083 96.1619 177.477V183H94.821ZM100.774 183V174.273H102.07V175.591H102.161C102.32 175.159 102.607 174.809 103.024 174.54C103.441 174.271 103.911 174.136 104.433 174.136C104.532 174.136 104.655 174.138 104.803 174.142C104.95 174.146 105.062 174.152 105.138 174.159V175.523C105.092 175.511 104.988 175.494 104.825 175.472C104.666 175.445 104.498 175.432 104.32 175.432C103.895 175.432 103.517 175.521 103.183 175.699C102.854 175.873 102.592 176.116 102.399 176.426C102.21 176.733 102.115 177.083 102.115 177.477V183H100.774ZM110.007 183.182C109.219 183.182 108.528 182.994 107.933 182.619C107.342 182.244 106.88 181.72 106.547 181.045C106.217 180.371 106.053 179.583 106.053 178.682C106.053 177.773 106.217 176.979 106.547 176.301C106.88 175.623 107.342 175.097 107.933 174.722C108.528 174.347 109.219 174.159 110.007 174.159C110.795 174.159 111.484 174.347 112.075 174.722C112.67 175.097 113.132 175.623 113.462 176.301C113.795 176.979 113.962 177.773 113.962 178.682C113.962 179.583 113.795 180.371 113.462 181.045C113.132 181.72 112.67 182.244 112.075 182.619C111.484 182.994 110.795 183.182 110.007 183.182ZM110.007 181.977C110.606 181.977 111.098 181.824 111.484 181.517C111.871 181.21 112.157 180.807 112.342 180.307C112.528 179.807 112.621 179.265 112.621 178.682C112.621 178.098 112.528 177.555 112.342 177.051C112.157 176.547 111.871 176.14 111.484 175.83C111.098 175.519 110.606 175.364 110.007 175.364C109.409 175.364 108.916 175.519 108.53 175.83C108.143 176.14 107.857 176.547 107.672 177.051C107.486 177.555 107.393 178.098 107.393 178.682C107.393 179.265 107.486 179.807 107.672 180.307C107.857 180.807 108.143 181.21 108.53 181.517C108.916 181.824 109.409 181.977 110.007 181.977ZM122.19 176.227L120.986 176.568C120.91 176.367 120.798 176.172 120.651 175.983C120.507 175.79 120.31 175.631 120.06 175.506C119.81 175.381 119.49 175.318 119.099 175.318C118.565 175.318 118.12 175.441 117.764 175.688C117.412 175.93 117.236 176.239 117.236 176.614C117.236 176.947 117.357 177.21 117.599 177.403C117.842 177.597 118.221 177.758 118.736 177.886L120.031 178.205C120.812 178.394 121.393 178.684 121.776 179.074C122.158 179.46 122.349 179.958 122.349 180.568C122.349 181.068 122.205 181.515 121.918 181.909C121.634 182.303 121.236 182.614 120.724 182.841C120.213 183.068 119.618 183.182 118.94 183.182C118.05 183.182 117.313 182.989 116.73 182.602C116.147 182.216 115.777 181.652 115.622 180.909L116.895 180.591C117.016 181.061 117.245 181.413 117.582 181.648C117.923 181.883 118.368 182 118.918 182C119.543 182 120.039 181.867 120.406 181.602C120.777 181.333 120.963 181.011 120.963 180.636C120.963 180.333 120.857 180.08 120.645 179.875C120.433 179.667 120.107 179.511 119.668 179.409L118.213 179.068C117.414 178.879 116.827 178.585 116.452 178.188C116.08 177.786 115.895 177.284 115.895 176.682C115.895 176.189 116.033 175.754 116.31 175.375C116.59 174.996 116.971 174.699 117.452 174.483C117.937 174.267 118.486 174.159 119.099 174.159C119.963 174.159 120.641 174.348 121.134 174.727C121.63 175.106 121.982 175.606 122.19 176.227Z" fill="#4157AF"/>
<circle cx="33.5" cy="177.5" r="7" stroke="#4157AF"/>
<path d="M54.3636 148C54.2386 147.617 54.0739 147.275 53.8693 146.972C53.6686 146.665 53.428 146.403 53.1477 146.188C52.8712 145.972 52.5568 145.807 52.2045 145.693C51.8523 145.58 51.4659 145.523 51.0455 145.523C50.3561 145.523 49.7292 145.701 49.1648 146.057C48.6004 146.413 48.1515 146.938 47.8182 147.631C47.4848 148.324 47.3182 149.174 47.3182 150.182C47.3182 151.189 47.4867 152.04 47.8239 152.733C48.161 153.426 48.6174 153.951 49.1932 154.307C49.7689 154.663 50.4167 154.841 51.1364 154.841C51.803 154.841 52.3902 154.699 52.8977 154.415C53.4091 154.127 53.8068 153.722 54.0909 153.199C54.3788 152.672 54.5227 152.053 54.5227 151.341L54.9545 151.432H51.4545V150.182H55.8864V151.432C55.8864 152.39 55.6818 153.223 55.2727 153.932C54.8674 154.64 54.3068 155.189 53.5909 155.58C52.8788 155.966 52.0606 156.159 51.1364 156.159C50.1061 156.159 49.2008 155.917 48.4205 155.432C47.6439 154.947 47.0379 154.258 46.6023 153.364C46.1705 152.47 45.9545 151.409 45.9545 150.182C45.9545 149.261 46.0777 148.434 46.3239 147.699C46.5739 146.96 46.9261 146.331 47.3807 145.812C47.8352 145.294 48.3731 144.896 48.9943 144.619C49.6155 144.343 50.2992 144.205 51.0455 144.205C51.6591 144.205 52.2311 144.297 52.7614 144.483C53.2955 144.665 53.7708 144.924 54.1875 145.261C54.608 145.595 54.9583 145.994 55.2386 146.46C55.5189 146.922 55.7121 147.436 55.8182 148H54.3636ZM60.6861 156.205C60.133 156.205 59.6312 156.1 59.1804 155.892C58.7296 155.68 58.3717 155.375 58.1065 154.977C57.8414 154.576 57.7088 154.091 57.7088 153.523C57.7088 153.023 57.8073 152.617 58.0043 152.307C58.2012 151.992 58.4645 151.746 58.794 151.568C59.1236 151.39 59.4872 151.258 59.8849 151.17C60.2865 151.08 60.6899 151.008 61.0952 150.955C61.6255 150.886 62.0554 150.835 62.3849 150.801C62.7183 150.763 62.9607 150.701 63.1122 150.614C63.2675 150.527 63.3452 150.375 63.3452 150.159V150.114C63.3452 149.553 63.1918 149.117 62.8849 148.807C62.5819 148.496 62.1217 148.341 61.5043 148.341C60.8641 148.341 60.3622 148.481 59.9986 148.761C59.6349 149.042 59.3793 149.341 59.2315 149.659L57.9588 149.205C58.1861 148.674 58.4891 148.261 58.8679 147.966C59.2505 147.667 59.6671 147.458 60.1179 147.341C60.5724 147.22 61.0194 147.159 61.4588 147.159C61.7391 147.159 62.0611 147.193 62.4247 147.261C62.7921 147.326 63.1463 147.46 63.4872 147.665C63.8319 147.869 64.1179 148.178 64.3452 148.591C64.5724 149.004 64.6861 149.557 64.6861 150.25V156H63.3452V154.818H63.277C63.1861 155.008 63.0346 155.21 62.8224 155.426C62.6103 155.642 62.3281 155.826 61.9759 155.977C61.6236 156.129 61.1937 156.205 60.6861 156.205ZM60.8906 155C61.4209 155 61.8679 154.896 62.2315 154.688C62.599 154.479 62.8755 154.21 63.0611 153.881C63.2505 153.551 63.3452 153.205 63.3452 152.841V151.614C63.2884 151.682 63.1634 151.744 62.9702 151.801C62.7808 151.854 62.5611 151.902 62.3111 151.943C62.0649 151.981 61.8243 152.015 61.5895 152.045C61.3584 152.072 61.1709 152.095 61.027 152.114C60.6785 152.159 60.3527 152.233 60.0497 152.335C59.7505 152.434 59.508 152.583 59.3224 152.784C59.1406 152.981 59.0497 153.25 59.0497 153.591C59.0497 154.057 59.2221 154.409 59.5668 154.648C59.9152 154.883 60.3565 155 60.8906 155ZM70.929 147.273V148.409H66.4062V147.273H70.929ZM67.7244 145.182H69.0653V153.5C69.0653 153.879 69.1203 154.163 69.2301 154.352C69.3438 154.538 69.4877 154.663 69.6619 154.727C69.84 154.788 70.0275 154.818 70.2244 154.818C70.3722 154.818 70.4934 154.811 70.5881 154.795C70.6828 154.777 70.7585 154.761 70.8153 154.75L71.0881 155.955C70.9972 155.989 70.8703 156.023 70.7074 156.057C70.5445 156.095 70.3381 156.114 70.0881 156.114C69.7093 156.114 69.3381 156.032 68.9744 155.869C68.6146 155.706 68.3153 155.458 68.0767 155.125C67.8419 154.792 67.7244 154.371 67.7244 153.864V145.182ZM76.3977 156.182C75.6098 156.182 74.9186 155.994 74.3239 155.619C73.733 155.244 73.2708 154.72 72.9375 154.045C72.608 153.371 72.4432 152.583 72.4432 151.682C72.4432 150.773 72.608 149.979 72.9375 149.301C73.2708 148.623 73.733 148.097 74.3239 147.722C74.9186 147.347 75.6098 147.159 76.3977 147.159C77.1856 147.159 77.875 147.347 78.4659 147.722C79.0606 148.097 79.5227 148.623 79.8523 149.301C80.1856 149.979 80.3523 150.773 80.3523 151.682C80.3523 152.583 80.1856 153.371 79.8523 154.045C79.5227 154.72 79.0606 155.244 78.4659 155.619C77.875 155.994 77.1856 156.182 76.3977 156.182ZM76.3977 154.977C76.9962 154.977 77.4886 154.824 77.875 154.517C78.2614 154.21 78.5473 153.807 78.733 153.307C78.9186 152.807 79.0114 152.265 79.0114 151.682C79.0114 151.098 78.9186 150.555 78.733 150.051C78.5473 149.547 78.2614 149.14 77.875 148.83C77.4886 148.519 76.9962 148.364 76.3977 148.364C75.7992 148.364 75.3068 148.519 74.9205 148.83C74.5341 149.14 74.2481 149.547 74.0625 150.051C73.8769 150.555 73.7841 151.098 73.7841 151.682C73.7841 152.265 73.8769 152.807 74.0625 153.307C74.2481 153.807 74.5341 154.21 74.9205 154.517C75.3068 154.824 75.7992 154.977 76.3977 154.977ZM88.581 149.227L87.3764 149.568C87.3007 149.367 87.1889 149.172 87.0412 148.983C86.8973 148.79 86.7003 148.631 86.4503 148.506C86.2003 148.381 85.8802 148.318 85.4901 148.318C84.956 148.318 84.5109 148.441 84.1548 148.688C83.8026 148.93 83.6264 149.239 83.6264 149.614C83.6264 149.947 83.7476 150.21 83.9901 150.403C84.2325 150.597 84.6113 150.758 85.1264 150.886L86.4219 151.205C87.2022 151.394 87.7836 151.684 88.1662 152.074C88.5488 152.46 88.7401 152.958 88.7401 153.568C88.7401 154.068 88.5961 154.515 88.3082 154.909C88.0241 155.303 87.6264 155.614 87.1151 155.841C86.6037 156.068 86.009 156.182 85.331 156.182C84.4408 156.182 83.7041 155.989 83.1207 155.602C82.5374 155.216 82.1681 154.652 82.0128 153.909L83.2855 153.591C83.4067 154.061 83.6359 154.413 83.973 154.648C84.3139 154.883 84.759 155 85.3082 155C85.9332 155 86.4295 154.867 86.7969 154.602C87.1681 154.333 87.3537 154.011 87.3537 153.636C87.3537 153.333 87.2476 153.08 87.0355 152.875C86.8234 152.667 86.4976 152.511 86.0582 152.409L84.6037 152.068C83.8045 151.879 83.2173 151.585 82.8423 151.188C82.4711 150.786 82.2855 150.284 82.2855 149.682C82.2855 149.189 82.4238 148.754 82.7003 148.375C82.9806 147.996 83.3613 147.699 83.8423 147.483C84.3272 147.267 84.8764 147.159 85.4901 147.159C86.3537 147.159 87.0317 147.348 87.5241 147.727C88.0204 148.106 88.3726 148.606 88.581 149.227Z" fill="#4157AF"/>
<circle cx="33.5" cy="150.5" r="7" stroke="#4157AF"/>
<path d="M55.7727 97H54.3636C54.2803 96.5947 54.1345 96.2386 53.9261 95.9318C53.7216 95.625 53.4716 95.3674 53.1761 95.1591C52.8845 94.947 52.5606 94.7879 52.2045 94.6818C51.8485 94.5758 51.4773 94.5227 51.0909 94.5227C50.3864 94.5227 49.7481 94.7008 49.1761 95.0568C48.608 95.4129 48.1553 95.9375 47.8182 96.6307C47.4848 97.3239 47.3182 98.1742 47.3182 99.1818C47.3182 100.189 47.4848 101.04 47.8182 101.733C48.1553 102.426 48.608 102.951 49.1761 103.307C49.7481 103.663 50.3864 103.841 51.0909 103.841C51.4773 103.841 51.8485 103.788 52.2045 103.682C52.5606 103.576 52.8845 103.419 53.1761 103.21C53.4716 102.998 53.7216 102.739 53.9261 102.432C54.1345 102.121 54.2803 101.765 54.3636 101.364H55.7727C55.6667 101.958 55.4735 102.491 55.1932 102.96C54.9129 103.43 54.5644 103.83 54.1477 104.159C53.7311 104.485 53.2633 104.733 52.7443 104.903C52.2292 105.074 51.678 105.159 51.0909 105.159C50.0985 105.159 49.2159 104.917 48.4432 104.432C47.6705 103.947 47.0625 103.258 46.6193 102.364C46.1761 101.47 45.9545 100.409 45.9545 99.1818C45.9545 97.9545 46.1761 96.8939 46.6193 96C47.0625 95.1061 47.6705 94.4167 48.4432 93.9318C49.2159 93.447 50.0985 93.2045 51.0909 93.2045C51.678 93.2045 52.2292 93.2898 52.7443 93.4602C53.2633 93.6307 53.7311 93.8807 54.1477 94.2102C54.5644 94.536 54.9129 94.9337 55.1932 95.4034C55.4735 95.8693 55.6667 96.4015 55.7727 97ZM60.4361 105.205C59.883 105.205 59.3812 105.1 58.9304 104.892C58.4796 104.68 58.1217 104.375 57.8565 103.977C57.5914 103.576 57.4588 103.091 57.4588 102.523C57.4588 102.023 57.5573 101.617 57.7543 101.307C57.9512 100.992 58.2145 100.746 58.544 100.568C58.8736 100.39 59.2372 100.258 59.6349 100.17C60.0365 100.08 60.4399 100.008 60.8452 99.9545C61.3755 99.8864 61.8054 99.8352 62.1349 99.8011C62.4683 99.7633 62.7107 99.7008 62.8622 99.6136C63.0175 99.5265 63.0952 99.375 63.0952 99.1591V99.1136C63.0952 98.553 62.9418 98.1174 62.6349 97.8068C62.3319 97.4962 61.8717 97.3409 61.2543 97.3409C60.6141 97.3409 60.1122 97.4811 59.7486 97.7614C59.3849 98.0417 59.1293 98.3409 58.9815 98.6591L57.7088 98.2045C57.9361 97.6742 58.2391 97.2614 58.6179 96.9659C59.0005 96.6667 59.4171 96.4583 59.8679 96.3409C60.3224 96.2197 60.7694 96.1591 61.2088 96.1591C61.4891 96.1591 61.8111 96.1932 62.1747 96.2614C62.5421 96.3258 62.8963 96.4602 63.2372 96.6648C63.5819 96.8693 63.8679 97.178 64.0952 97.5909C64.3224 98.0038 64.4361 98.5568 64.4361 99.25V105H63.0952V103.818H63.027C62.9361 104.008 62.7846 104.21 62.5724 104.426C62.3603 104.642 62.0781 104.826 61.7259 104.977C61.3736 105.129 60.9437 105.205 60.4361 105.205ZM60.6406 104C61.1709 104 61.6179 103.896 61.9815 103.688C62.349 103.479 62.6255 103.21 62.8111 102.881C63.0005 102.551 63.0952 102.205 63.0952 101.841V100.614C63.0384 100.682 62.9134 100.744 62.7202 100.801C62.5308 100.854 62.3111 100.902 62.0611 100.943C61.8149 100.981 61.5743 101.015 61.3395 101.045C61.1084 101.072 60.9209 101.095 60.777 101.114C60.4285 101.159 60.1027 101.233 59.7997 101.335C59.5005 101.434 59.258 101.583 59.0724 101.784C58.8906 101.981 58.7997 102.25 58.7997 102.591C58.7997 103.057 58.9721 103.409 59.3168 103.648C59.6652 103.883 60.1065 104 60.6406 104ZM70.179 105.182C69.4517 105.182 68.8097 104.998 68.2528 104.631C67.696 104.259 67.2604 103.737 66.946 103.062C66.6316 102.384 66.4744 101.583 66.4744 100.659C66.4744 99.7424 66.6316 98.947 66.946 98.2727C67.2604 97.5985 67.6979 97.0777 68.2585 96.7102C68.8191 96.3428 69.4669 96.1591 70.2017 96.1591C70.7699 96.1591 71.2188 96.2538 71.5483 96.4432C71.8816 96.6288 72.1354 96.8409 72.3097 97.0795C72.4877 97.3144 72.6259 97.5076 72.7244 97.6591H72.8381V93.3636H74.179V105H72.8835V103.659H72.7244C72.6259 103.818 72.4858 104.019 72.304 104.261C72.1222 104.5 71.8627 104.714 71.5256 104.903C71.1884 105.089 70.7396 105.182 70.179 105.182ZM70.3608 103.977C70.8987 103.977 71.3532 103.837 71.7244 103.557C72.0956 103.273 72.3778 102.881 72.571 102.381C72.7642 101.877 72.8608 101.295 72.8608 100.636C72.8608 99.9848 72.7661 99.4148 72.5767 98.9261C72.3873 98.4337 72.107 98.0511 71.7358 97.7784C71.3646 97.5019 70.9063 97.3636 70.3608 97.3636C69.7926 97.3636 69.3191 97.5095 68.9403 97.8011C68.5653 98.089 68.2831 98.4811 68.0938 98.9773C67.9081 99.4697 67.8153 100.023 67.8153 100.636C67.8153 101.258 67.91 101.822 68.0994 102.33C68.2926 102.833 68.5767 103.235 68.9517 103.534C69.3305 103.83 69.8002 103.977 70.3608 103.977ZM79.3892 105.205C78.8362 105.205 78.3343 105.1 77.8835 104.892C77.4328 104.68 77.0748 104.375 76.8097 103.977C76.5445 103.576 76.4119 103.091 76.4119 102.523C76.4119 102.023 76.5104 101.617 76.7074 101.307C76.9044 100.992 77.1676 100.746 77.4972 100.568C77.8267 100.39 78.1903 100.258 78.5881 100.17C78.9896 100.08 79.393 100.008 79.7983 99.9545C80.3286 99.8864 80.7585 99.8352 81.0881 99.8011C81.4214 99.7633 81.6638 99.7008 81.8153 99.6136C81.9706 99.5265 82.0483 99.375 82.0483 99.1591V99.1136C82.0483 98.553 81.8949 98.1174 81.5881 97.8068C81.285 97.4962 80.8248 97.3409 80.2074 97.3409C79.5672 97.3409 79.0653 97.4811 78.7017 97.7614C78.3381 98.0417 78.0824 98.3409 77.9347 98.6591L76.6619 98.2045C76.8892 97.6742 77.1922 97.2614 77.571 96.9659C77.9536 96.6667 78.3703 96.4583 78.821 96.3409C79.2756 96.2197 79.7225 96.1591 80.1619 96.1591C80.4422 96.1591 80.7642 96.1932 81.1278 96.2614C81.4953 96.3258 81.8494 96.4602 82.1903 96.6648C82.535 96.8693 82.821 97.178 83.0483 97.5909C83.2756 98.0038 83.3892 98.5568 83.3892 99.25V105H82.0483V103.818H81.9801C81.8892 104.008 81.7377 104.21 81.5256 104.426C81.3134 104.642 81.0313 104.826 80.679 104.977C80.3267 105.129 79.8968 105.205 79.3892 105.205ZM79.5938 104C80.1241 104 80.571 103.896 80.9347 103.688C81.3021 103.479 81.5786 103.21 81.7642 102.881C81.9536 102.551 82.0483 102.205 82.0483 101.841V100.614C81.9915 100.682 81.8665 100.744 81.6733 100.801C81.4839 100.854 81.2642 100.902 81.0142 100.943C80.768 100.981 80.5275 101.015 80.2926 101.045C80.0616 101.072 79.8741 101.095 79.7301 101.114C79.3816 101.159 79.0559 101.233 78.7528 101.335C78.4536 101.434 78.2112 101.583 78.0256 101.784C77.8438 101.981 77.7528 102.25 77.7528 102.591C77.7528 103.057 77.9252 103.409 78.2699 103.648C78.6184 103.883 79.0597 104 79.5938 104ZM92.0185 98.2273L90.8139 98.5682C90.7382 98.3674 90.6264 98.1723 90.4787 97.983C90.3348 97.7898 90.1378 97.6307 89.8878 97.5057C89.6378 97.3807 89.3177 97.3182 88.9276 97.3182C88.3935 97.3182 87.9484 97.4413 87.5923 97.6875C87.2401 97.9299 87.0639 98.2386 87.0639 98.6136C87.0639 98.947 87.1851 99.2102 87.4276 99.4034C87.67 99.5966 88.0488 99.7576 88.5639 99.8864L89.8594 100.205C90.6397 100.394 91.2211 100.684 91.6037 101.074C91.9863 101.46 92.1776 101.958 92.1776 102.568C92.1776 103.068 92.0336 103.515 91.7457 103.909C91.4616 104.303 91.0639 104.614 90.5526 104.841C90.0412 105.068 89.4465 105.182 88.7685 105.182C87.8783 105.182 87.1416 104.989 86.5582 104.602C85.9749 104.216 85.6056 103.652 85.4503 102.909L86.723 102.591C86.8442 103.061 87.0734 103.413 87.4105 103.648C87.7514 103.883 88.1965 104 88.7457 104C89.3707 104 89.867 103.867 90.2344 103.602C90.6056 103.333 90.7912 103.011 90.7912 102.636C90.7912 102.333 90.6851 102.08 90.473 101.875C90.2609 101.667 89.9351 101.511 89.4957 101.409L88.0412 101.068C87.242 100.879 86.6548 100.585 86.2798 100.188C85.9086 99.786 85.723 99.2841 85.723 98.6818C85.723 98.1894 85.8613 97.7538 86.1378 97.375C86.4181 96.9962 86.7988 96.6989 87.2798 96.483C87.7647 96.267 88.3139 96.1591 88.9276 96.1591C89.7912 96.1591 90.4692 96.3485 90.9616 96.7273C91.4579 97.1061 91.8101 97.6061 92.0185 98.2273ZM97.9915 96.2727V97.4091H93.4688V96.2727H97.9915ZM94.7869 94.1818H96.1278V102.5C96.1278 102.879 96.1828 103.163 96.2926 103.352C96.4063 103.538 96.5502 103.663 96.7244 103.727C96.9025 103.788 97.09 103.818 97.2869 103.818C97.4347 103.818 97.5559 103.811 97.6506 103.795C97.7453 103.777 97.821 103.761 97.8778 103.75L98.1506 104.955C98.0597 104.989 97.9328 105.023 97.7699 105.057C97.607 105.095 97.4006 105.114 97.1506 105.114C96.7718 105.114 96.4006 105.032 96.0369 104.869C95.6771 104.706 95.3778 104.458 95.1392 104.125C94.9044 103.792 94.7869 103.371 94.7869 102.864V94.1818ZM100.009 105V96.2727H101.304V97.5909H101.395C101.554 97.1591 101.842 96.8087 102.259 96.5398C102.675 96.2708 103.145 96.1364 103.668 96.1364C103.766 96.1364 103.889 96.1383 104.037 96.142C104.185 96.1458 104.296 96.1515 104.372 96.1591V97.5227C104.327 97.5114 104.223 97.4943 104.06 97.4716C103.901 97.4451 103.732 97.4318 103.554 97.4318C103.13 97.4318 102.751 97.5208 102.418 97.6989C102.088 97.8731 101.827 98.1155 101.634 98.4261C101.444 98.733 101.349 99.0833 101.349 99.4773V105H100.009ZM109.241 105.182C108.454 105.182 107.762 104.994 107.168 104.619C106.577 104.244 106.115 103.72 105.781 103.045C105.452 102.371 105.287 101.583 105.287 100.682C105.287 99.7727 105.452 98.9792 105.781 98.3011C106.115 97.6231 106.577 97.0966 107.168 96.7216C107.762 96.3466 108.454 96.1591 109.241 96.1591C110.029 96.1591 110.719 96.3466 111.31 96.7216C111.904 97.0966 112.366 97.6231 112.696 98.3011C113.029 98.9792 113.196 99.7727 113.196 100.682C113.196 101.583 113.029 102.371 112.696 103.045C112.366 103.72 111.904 104.244 111.31 104.619C110.719 104.994 110.029 105.182 109.241 105.182ZM109.241 103.977C109.84 103.977 110.332 103.824 110.719 103.517C111.105 103.21 111.391 102.807 111.577 102.307C111.762 101.807 111.855 101.265 111.855 100.682C111.855 100.098 111.762 99.5549 111.577 99.0511C111.391 98.5473 111.105 98.1402 110.719 97.8295C110.332 97.5189 109.84 97.3636 109.241 97.3636C108.643 97.3636 108.151 97.5189 107.764 97.8295C107.378 98.1402 107.092 98.5473 106.906 99.0511C106.721 99.5549 106.628 100.098 106.628 100.682C106.628 101.265 106.721 101.807 106.906 102.307C107.092 102.807 107.378 103.21 107.764 103.517C108.151 103.824 108.643 103.977 109.241 103.977ZM121.425 98.2273L120.22 98.5682C120.144 98.3674 120.033 98.1723 119.885 97.983C119.741 97.7898 119.544 97.6307 119.294 97.5057C119.044 97.3807 118.724 97.3182 118.334 97.3182C117.8 97.3182 117.355 97.4413 116.999 97.6875C116.646 97.9299 116.47 98.2386 116.47 98.6136C116.47 98.947 116.591 99.2102 116.834 99.4034C117.076 99.5966 117.455 99.7576 117.97 99.8864L119.266 100.205C120.046 100.394 120.627 100.684 121.01 101.074C121.393 101.46 121.584 101.958 121.584 102.568C121.584 103.068 121.44 103.515 121.152 103.909C120.868 104.303 120.47 104.614 119.959 104.841C119.447 105.068 118.853 105.182 118.175 105.182C117.285 105.182 116.548 104.989 115.964 104.602C115.381 104.216 115.012 103.652 114.857 102.909L116.129 102.591C116.25 103.061 116.48 103.413 116.817 103.648C117.158 103.883 117.603 104 118.152 104C118.777 104 119.273 103.867 119.641 103.602C120.012 103.333 120.197 103.011 120.197 102.636C120.197 102.333 120.091 102.08 119.879 101.875C119.667 101.667 119.341 101.511 118.902 101.409L117.447 101.068C116.648 100.879 116.061 100.585 115.686 100.188C115.315 99.786 115.129 99.2841 115.129 98.6818C115.129 98.1894 115.268 97.7538 115.544 97.375C115.824 96.9962 116.205 96.6989 116.686 96.483C117.171 96.267 117.72 96.1591 118.334 96.1591C119.197 96.1591 119.875 96.3485 120.368 96.7273C120.864 97.1061 121.216 97.6061 121.425 98.2273Z" fill="#4157AF"/>
<circle cx="33.5" cy="99.5" r="7" stroke="#4157AF"/>
<path d="M46.8864 78H45.4091L49.6818 66.3636H51.1364L55.4091 78H53.9318L50.4545 68.2045H50.3636L46.8864 78ZM47.4318 73.4545H53.3864V74.7045H47.4318V73.4545ZM60.3352 78.1818C59.608 78.1818 58.9659 77.9981 58.4091 77.6307C57.8523 77.2595 57.4167 76.7367 57.1023 76.0625C56.7879 75.3845 56.6307 74.5833 56.6307 73.6591C56.6307 72.7424 56.7879 71.947 57.1023 71.2727C57.4167 70.5985 57.8542 70.0777 58.4148 69.7102C58.9754 69.3428 59.6231 69.1591 60.358 69.1591C60.9261 69.1591 61.375 69.2538 61.7045 69.4432C62.0379 69.6288 62.2917 69.8409 62.4659 70.0795C62.6439 70.3144 62.7822 70.5076 62.8807 70.6591H62.9943V66.3636H64.3352V78H63.0398V76.6591H62.8807C62.7822 76.8182 62.642 77.0189 62.4602 77.2614C62.2784 77.5 62.0189 77.714 61.6818 77.9034C61.3447 78.089 60.8958 78.1818 60.3352 78.1818ZM60.517 76.9773C61.0549 76.9773 61.5095 76.8371 61.8807 76.5568C62.2519 76.2727 62.5341 75.8807 62.7273 75.3807C62.9205 74.8769 63.017 74.2955 63.017 73.6364C63.017 72.9848 62.9223 72.4148 62.733 71.9261C62.5436 71.4337 62.2633 71.0511 61.892 70.7784C61.5208 70.5019 61.0625 70.3636 60.517 70.3636C59.9489 70.3636 59.4754 70.5095 59.0966 70.8011C58.7216 71.089 58.4394 71.4811 58.25 71.9773C58.0644 72.4697 57.9716 73.0227 57.9716 73.6364C57.9716 74.2576 58.0663 74.822 58.2557 75.3295C58.4489 75.8333 58.733 76.2348 59.108 76.5341C59.4867 76.8295 59.9564 76.9773 60.517 76.9773ZM70.5227 78.1818C69.7348 78.1818 69.0436 77.9943 68.4489 77.6193C67.858 77.2443 67.3958 76.7197 67.0625 76.0455C66.733 75.3712 66.5682 74.5833 66.5682 73.6818C66.5682 72.7727 66.733 71.9792 67.0625 71.3011C67.3958 70.6231 67.858 70.0966 68.4489 69.7216C69.0436 69.3466 69.7348 69.1591 70.5227 69.1591C71.3106 69.1591 72 69.3466 72.5909 69.7216C73.1856 70.0966 73.6477 70.6231 73.9773 71.3011C74.3106 71.9792 74.4773 72.7727 74.4773 73.6818C74.4773 74.5833 74.3106 75.3712 73.9773 76.0455C73.6477 76.7197 73.1856 77.2443 72.5909 77.6193C72 77.9943 71.3106 78.1818 70.5227 78.1818ZM70.5227 76.9773C71.1212 76.9773 71.6136 76.8239 72 76.517C72.3864 76.2102 72.6723 75.8068 72.858 75.3068C73.0436 74.8068 73.1364 74.2652 73.1364 73.6818C73.1364 73.0985 73.0436 72.5549 72.858 72.0511C72.6723 71.5473 72.3864 71.1402 72 70.8295C71.6136 70.5189 71.1212 70.3636 70.5227 70.3636C69.9242 70.3636 69.4318 70.5189 69.0455 70.8295C68.6591 71.1402 68.3731 71.5473 68.1875 72.0511C68.0019 72.5549 67.9091 73.0985 67.9091 73.6818C67.9091 74.2652 68.0019 74.8068 68.1875 75.3068C68.3731 75.8068 68.6591 76.2102 69.0455 76.517C69.4318 76.8239 69.9242 76.9773 70.5227 76.9773ZM80.0696 78.1818C79.2514 78.1818 78.5469 77.9886 77.956 77.6023C77.3651 77.2159 76.9105 76.6837 76.5923 76.0057C76.2741 75.3277 76.1151 74.553 76.1151 73.6818C76.1151 72.7955 76.2779 72.0133 76.6037 71.3352C76.9332 70.6534 77.3916 70.1212 77.9787 69.7386C78.5696 69.3523 79.259 69.1591 80.0469 69.1591C80.6605 69.1591 81.2135 69.2727 81.706 69.5C82.1984 69.7273 82.6018 70.0455 82.9162 70.4545C83.2306 70.8636 83.4257 71.3409 83.5014 71.8864H82.1605C82.0582 71.4886 81.831 71.1364 81.4787 70.8295C81.1302 70.5189 80.6605 70.3636 80.0696 70.3636C79.5469 70.3636 79.0885 70.5 78.6946 70.7727C78.3045 71.0417 77.9995 71.4223 77.7798 71.9148C77.5639 72.4034 77.456 72.9773 77.456 73.6364C77.456 74.3106 77.562 74.8977 77.7741 75.3977C77.9901 75.8977 78.2931 76.286 78.6832 76.5625C79.0772 76.839 79.5393 76.9773 80.0696 76.9773C80.4181 76.9773 80.7344 76.9167 81.0185 76.7955C81.3026 76.6742 81.5431 76.5 81.7401 76.2727C81.937 76.0455 82.0772 75.7727 82.1605 75.4545H83.5014C83.4257 75.9697 83.2382 76.4337 82.9389 76.8466C82.6435 77.2557 82.2514 77.5814 81.7628 77.8239C81.2779 78.0625 80.7135 78.1818 80.0696 78.1818ZM79.4332 77.9545H80.5469L80.456 78.4091C80.7514 78.4545 81.0223 78.5777 81.2685 78.7784C81.5147 78.983 81.6378 79.3068 81.6378 79.75C81.6378 80.2386 81.4351 80.6364 81.0298 80.9432C80.6283 81.2538 80.0355 81.4091 79.2514 81.4091L79.206 80.5227C79.5582 80.5227 79.8499 80.4659 80.081 80.3523C80.3158 80.2424 80.4332 80.0568 80.4332 79.7955C80.4332 79.5341 80.3366 79.3561 80.1435 79.2614C79.9503 79.1667 79.6378 79.1023 79.206 79.0682L79.4332 77.9545ZM89.0071 78.1818C88.2192 78.1818 87.5279 77.9943 86.9332 77.6193C86.3423 77.2443 85.8802 76.7197 85.5469 76.0455C85.2173 75.3712 85.0526 74.5833 85.0526 73.6818C85.0526 72.7727 85.2173 71.9792 85.5469 71.3011C85.8802 70.6231 86.3423 70.0966 86.9332 69.7216C87.5279 69.3466 88.2192 69.1591 89.0071 69.1591C89.795 69.1591 90.4844 69.3466 91.0753 69.7216C91.67 70.0966 92.1321 70.6231 92.4616 71.3011C92.795 71.9792 92.9616 72.7727 92.9616 73.6818C92.9616 74.5833 92.795 75.3712 92.4616 76.0455C92.1321 76.7197 91.67 77.2443 91.0753 77.6193C90.4844 77.9943 89.795 78.1818 89.0071 78.1818ZM89.0071 76.9773C89.6056 76.9773 90.098 76.8239 90.4844 76.517C90.8707 76.2102 91.1567 75.8068 91.3423 75.3068C91.5279 74.8068 91.6207 74.2652 91.6207 73.6818C91.6207 73.0985 91.5279 72.5549 91.3423 72.0511C91.1567 71.5473 90.8707 71.1402 90.4844 70.8295C90.098 70.5189 89.6056 70.3636 89.0071 70.3636C88.4086 70.3636 87.9162 70.5189 87.5298 70.8295C87.1435 71.1402 86.8575 71.5473 86.6719 72.0511C86.4863 72.5549 86.3935 73.0985 86.3935 73.6818C86.3935 74.2652 86.4863 74.8068 86.6719 75.3068C86.8575 75.8068 87.1435 76.2102 87.5298 76.517C87.9162 76.8239 88.4086 76.9773 89.0071 76.9773ZM87.2571 68.2273L86.2116 68.1818C86.2116 67.6023 86.3764 67.1288 86.706 66.7614C87.0393 66.3902 87.4503 66.2045 87.9389 66.2045C88.1548 66.2045 88.3461 66.2424 88.5128 66.3182C88.6795 66.3902 88.8385 66.4735 88.9901 66.5682C89.1416 66.6629 89.2969 66.7481 89.456 66.8239C89.6188 66.8958 89.8026 66.9318 90.0071 66.9318C90.223 66.9318 90.4048 66.8485 90.5526 66.6818C90.7041 66.5114 90.7798 66.3068 90.7798 66.0682L91.8026 66.1591C91.8026 66.75 91.6359 67.2197 91.3026 67.5682C90.973 67.9167 90.5639 68.0909 90.0753 68.0909C89.8139 68.0909 89.598 68.0549 89.4276 67.983C89.2571 67.9072 89.1056 67.822 88.973 67.7273C88.8404 67.6326 88.7003 67.5492 88.5526 67.4773C88.4048 67.4015 88.223 67.3636 88.0071 67.3636C87.7912 67.3636 87.6113 67.4489 87.4673 67.6193C87.3272 67.786 87.2571 67.9886 87.2571 68.2273ZM98.6676 78.1818C97.8267 78.1818 97.1013 77.9962 96.4915 77.625C95.8854 77.25 95.4176 76.7273 95.0881 76.0568C94.7623 75.3826 94.5994 74.5985 94.5994 73.7045C94.5994 72.8106 94.7623 72.0227 95.0881 71.3409C95.4176 70.6553 95.8759 70.1212 96.4631 69.7386C97.054 69.3523 97.7434 69.1591 98.5312 69.1591C98.9858 69.1591 99.4347 69.2348 99.8778 69.3864C100.321 69.5379 100.724 69.7841 101.088 70.125C101.452 70.4621 101.741 70.9091 101.957 71.4659C102.173 72.0227 102.281 72.7083 102.281 73.5227V74.0909H95.554V72.9318H100.918C100.918 72.4394 100.819 72 100.622 71.6136C100.429 71.2273 100.152 70.9223 99.7926 70.6989C99.4366 70.4754 99.0161 70.3636 98.5312 70.3636C97.9972 70.3636 97.535 70.4962 97.1449 70.7614C96.7585 71.0227 96.4612 71.3636 96.2528 71.7841C96.0445 72.2045 95.9403 72.6553 95.9403 73.1364V73.9091C95.9403 74.5682 96.054 75.1269 96.2812 75.5852C96.5123 76.0398 96.8324 76.3864 97.2415 76.625C97.6506 76.8598 98.1259 76.9773 98.6676 76.9773C99.0199 76.9773 99.3381 76.928 99.6222 76.8295C99.91 76.7273 100.158 76.5758 100.366 76.375C100.575 76.1705 100.736 75.9167 100.849 75.6136L102.145 75.9773C102.009 76.4167 101.779 76.803 101.457 77.1364C101.135 77.4659 100.738 77.7235 100.264 77.9091C99.7907 78.0909 99.2585 78.1818 98.6676 78.1818ZM110.503 71.2273L109.298 71.5682C109.223 71.3674 109.111 71.1723 108.963 70.983C108.819 70.7898 108.622 70.6307 108.372 70.5057C108.122 70.3807 107.802 70.3182 107.412 70.3182C106.878 70.3182 106.433 70.4413 106.077 70.6875C105.724 70.9299 105.548 71.2386 105.548 71.6136C105.548 71.947 105.67 72.2102 105.912 72.4034C106.154 72.5966 106.533 72.7576 107.048 72.8864L108.344 73.2045C109.124 73.3939 109.705 73.6837 110.088 74.0739C110.471 74.4602 110.662 74.9583 110.662 75.5682C110.662 76.0682 110.518 76.5152 110.23 76.9091C109.946 77.303 109.548 77.6136 109.037 77.8409C108.526 78.0682 107.931 78.1818 107.253 78.1818C106.363 78.1818 105.626 77.9886 105.043 77.6023C104.459 77.2159 104.09 76.6515 103.935 75.9091L105.207 75.5909C105.329 76.0606 105.558 76.4129 105.895 76.6477C106.236 76.8826 106.681 77 107.23 77C107.855 77 108.351 76.8674 108.719 76.6023C109.09 76.3333 109.276 76.0114 109.276 75.6364C109.276 75.3333 109.17 75.0795 108.957 74.875C108.745 74.6667 108.42 74.5114 107.98 74.4091L106.526 74.0682C105.726 73.8788 105.139 73.5852 104.764 73.1875C104.393 72.786 104.207 72.2841 104.207 71.6818C104.207 71.1894 104.346 70.7538 104.622 70.375C104.902 69.9962 105.283 69.6989 105.764 69.483C106.249 69.267 106.798 69.1591 107.412 69.1591C108.276 69.1591 108.954 69.3485 109.446 69.7273C109.942 70.1061 110.295 70.6061 110.503 71.2273Z" fill="#4157AF"/>
<circle cx="33.5" cy="72.5" r="7" fill="#CCCCCC" stroke="#4157AF"/>
<line x1="67" y1="124.5" x2="131" y2="124.5" stroke="#4157AF"/>
<line x1="66" y1="229.5" x2="130" y2="229.5" stroke="#4157AF"/>
<rect x="21.5" y="253.5" width="158" height="30" rx="4.5" fill="#F6F6F6" stroke="#4157AF"/>
<path d="M55.4091 274V262.364H59.3409C60.2538 262.364 61 262.528 61.5795 262.858C62.1629 263.184 62.5947 263.625 62.875 264.182C63.1553 264.739 63.2955 265.36 63.2955 266.045C63.2955 266.731 63.1553 267.354 62.875 267.915C62.5985 268.475 62.1705 268.922 61.5909 269.256C61.0114 269.585 60.2689 269.75 59.3636 269.75H56.5455V268.5H59.3182C59.9432 268.5 60.4451 268.392 60.8239 268.176C61.2027 267.96 61.4773 267.669 61.6477 267.301C61.822 266.93 61.9091 266.511 61.9091 266.045C61.9091 265.58 61.822 265.163 61.6477 264.795C61.4773 264.428 61.2008 264.14 60.8182 263.932C60.4356 263.72 59.928 263.614 59.2955 263.614H56.8182V274H55.4091ZM68.9489 274.182C68.108 274.182 67.3826 273.996 66.7727 273.625C66.1667 273.25 65.6989 272.727 65.3693 272.057C65.0436 271.383 64.8807 270.598 64.8807 269.705C64.8807 268.811 65.0436 268.023 65.3693 267.341C65.6989 266.655 66.1572 266.121 66.7443 265.739C67.3352 265.352 68.0246 265.159 68.8125 265.159C69.267 265.159 69.7159 265.235 70.1591 265.386C70.6023 265.538 71.0057 265.784 71.3693 266.125C71.733 266.462 72.0227 266.909 72.2386 267.466C72.4545 268.023 72.5625 268.708 72.5625 269.523V270.091H65.8352V268.932H71.1989C71.1989 268.439 71.1004 268 70.9034 267.614C70.7102 267.227 70.4337 266.922 70.0739 266.699C69.7178 266.475 69.2973 266.364 68.8125 266.364C68.2784 266.364 67.8163 266.496 67.4261 266.761C67.0398 267.023 66.7424 267.364 66.5341 267.784C66.3258 268.205 66.2216 268.655 66.2216 269.136V269.909C66.2216 270.568 66.3352 271.127 66.5625 271.585C66.7936 272.04 67.1136 272.386 67.5227 272.625C67.9318 272.86 68.4072 272.977 68.9489 272.977C69.3011 272.977 69.6193 272.928 69.9034 272.83C70.1913 272.727 70.4394 272.576 70.6477 272.375C70.8561 272.17 71.017 271.917 71.1307 271.614L72.4261 271.977C72.2898 272.417 72.0606 272.803 71.7386 273.136C71.4167 273.466 71.0189 273.723 70.5455 273.909C70.072 274.091 69.5398 274.182 68.9489 274.182ZM74.6023 274V265.273H75.8977V266.591H75.9886C76.1477 266.159 76.4356 265.809 76.8523 265.54C77.2689 265.271 77.7386 265.136 78.2614 265.136C78.3598 265.136 78.483 265.138 78.6307 265.142C78.7784 265.146 78.8902 265.152 78.9659 265.159V266.523C78.9205 266.511 78.8163 266.494 78.6534 266.472C78.4943 266.445 78.3258 266.432 78.1477 266.432C77.7235 266.432 77.3447 266.521 77.0114 266.699C76.6818 266.873 76.4205 267.116 76.2273 267.426C76.0379 267.733 75.9432 268.083 75.9432 268.477V274H74.6023ZM80.5554 274V265.273H81.8963V274H80.5554ZM80.6236 264.091L82.0099 261.455H83.5781L81.8054 264.091H80.6236ZM87.8977 274.182C87.1098 274.182 86.4186 273.994 85.8239 273.619C85.233 273.244 84.7708 272.72 84.4375 272.045C84.108 271.371 83.9432 270.583 83.9432 269.682C83.9432 268.773 84.108 267.979 84.4375 267.301C84.7708 266.623 85.233 266.097 85.8239 265.722C86.4186 265.347 87.1098 265.159 87.8977 265.159C88.6856 265.159 89.375 265.347 89.9659 265.722C90.5606 266.097 91.0227 266.623 91.3523 267.301C91.6856 267.979 91.8523 268.773 91.8523 269.682C91.8523 270.583 91.6856 271.371 91.3523 272.045C91.0227 272.72 90.5606 273.244 89.9659 273.619C89.375 273.994 88.6856 274.182 87.8977 274.182ZM87.8977 272.977C88.4962 272.977 88.9886 272.824 89.375 272.517C89.7614 272.21 90.0473 271.807 90.233 271.307C90.4186 270.807 90.5114 270.265 90.5114 269.682C90.5114 269.098 90.4186 268.555 90.233 268.051C90.0473 267.547 89.7614 267.14 89.375 266.83C88.9886 266.519 88.4962 266.364 87.8977 266.364C87.2992 266.364 86.8068 266.519 86.4205 266.83C86.0341 267.14 85.7481 267.547 85.5625 268.051C85.3769 268.555 85.2841 269.098 85.2841 269.682C85.2841 270.265 85.3769 270.807 85.5625 271.307C85.7481 271.807 86.0341 272.21 86.4205 272.517C86.8068 272.824 87.2992 272.977 87.8977 272.977ZM97.1946 274.182C96.4673 274.182 95.8253 273.998 95.2685 273.631C94.7116 273.259 94.276 272.737 93.9616 272.062C93.6473 271.384 93.4901 270.583 93.4901 269.659C93.4901 268.742 93.6473 267.947 93.9616 267.273C94.276 266.598 94.7135 266.078 95.2741 265.71C95.8348 265.343 96.4825 265.159 97.2173 265.159C97.7855 265.159 98.2344 265.254 98.5639 265.443C98.8973 265.629 99.151 265.841 99.3253 266.08C99.5033 266.314 99.6416 266.508 99.7401 266.659H99.8537V262.364H101.195V274H99.8991V272.659H99.7401C99.6416 272.818 99.5014 273.019 99.3196 273.261C99.1378 273.5 98.8783 273.714 98.5412 273.903C98.2041 274.089 97.7552 274.182 97.1946 274.182ZM97.3764 272.977C97.9143 272.977 98.3688 272.837 98.7401 272.557C99.1113 272.273 99.3935 271.881 99.5866 271.381C99.7798 270.877 99.8764 270.295 99.8764 269.636C99.8764 268.985 99.7817 268.415 99.5923 267.926C99.4029 267.434 99.1226 267.051 98.7514 266.778C98.3802 266.502 97.9219 266.364 97.3764 266.364C96.8082 266.364 96.3348 266.509 95.956 266.801C95.581 267.089 95.2988 267.481 95.1094 267.977C94.9238 268.47 94.831 269.023 94.831 269.636C94.831 270.258 94.9257 270.822 95.1151 271.33C95.3082 271.833 95.5923 272.235 95.9673 272.534C96.3461 272.83 96.8158 272.977 97.3764 272.977ZM107.382 274.182C106.594 274.182 105.903 273.994 105.308 273.619C104.717 273.244 104.255 272.72 103.922 272.045C103.592 271.371 103.428 270.583 103.428 269.682C103.428 268.773 103.592 267.979 103.922 267.301C104.255 266.623 104.717 266.097 105.308 265.722C105.903 265.347 106.594 265.159 107.382 265.159C108.17 265.159 108.859 265.347 109.45 265.722C110.045 266.097 110.507 266.623 110.837 267.301C111.17 267.979 111.337 268.773 111.337 269.682C111.337 270.583 111.17 271.371 110.837 272.045C110.507 272.72 110.045 273.244 109.45 273.619C108.859 273.994 108.17 274.182 107.382 274.182ZM107.382 272.977C107.981 272.977 108.473 272.824 108.859 272.517C109.246 272.21 109.532 271.807 109.717 271.307C109.903 270.807 109.996 270.265 109.996 269.682C109.996 269.098 109.903 268.555 109.717 268.051C109.532 267.547 109.246 267.14 108.859 266.83C108.473 266.519 107.981 266.364 107.382 266.364C106.784 266.364 106.291 266.519 105.905 266.83C105.518 267.14 105.232 267.547 105.047 268.051C104.861 268.555 104.768 269.098 104.768 269.682C104.768 270.265 104.861 270.807 105.047 271.307C105.232 271.807 105.518 272.21 105.905 272.517C106.291 272.824 106.784 272.977 107.382 272.977Z" fill="#4157AF"/>
<path d="M41.6 261.7H29.7C28.7611 261.7 28 262.461 28 263.4V275.3C28 276.239 28.7611 277 29.7 277H41.6C42.5389 277 43.3 276.239 43.3 275.3V263.4C43.3 262.461 42.5389 261.7 41.6 261.7Z" stroke="#4157AF" stroke-width="2" stroke-linecap="round" stroke-linejoin="round"/>
<path d="M39.05 260V263.4" stroke="#4157AF" stroke-width="2" stroke-linecap="round" stroke-linejoin="round"/>
<path d="M32.25 260V263.4" stroke="#4157AF" stroke-width="2" stroke-linecap="round" stroke-linejoin="round"/>
<path d="M28 266.8H43.3" stroke="#4157AF" stroke-width="2" stroke-linecap="round" stroke-linejoin="round"/>
<path d="M156 266L162 272L168 266" stroke="#4157AF" stroke-width="2" stroke-linecap="round" stroke-linejoin="round"/>
<defs>
<filter id="filter0_d_19_1369" x="0" y="0" width="201" height="308" filterUnits="userSpaceOnUse" color-interpolation-filters="sRGB">
<feFlood flood-opacity="0" result="BackgroundImageFix"/>
<feColorMatrix in="SourceAlpha" type="matrix" values="0 0 0 0 0 0 0 0 0 0 0 0 0 0 0 0 0 0 127 0" result="hardAlpha"/>
<feOffset dx="2" dy="2"/>
<feGaussianBlur stdDeviation="5"/>
<feComposite in2="hardAlpha" operator="out"/>
<feColorMatrix type="matrix" values="0 0 0 0 0 0 0 0 0 0 0 0 0 0 0 0 0 0 0.1 0"/>
<feBlend mode="normal" in2="BackgroundImageFix" result="effect1_dropShadow_19_1369"/>
<feBlend mode="normal" in="SourceGraphic" in2="effect1_dropShadow_19_1369" result="shape"/>
</filter>
</defs>
</svg>
