<svg width="415" height="308" viewBox="0 0 415 308" fill="none" xmlns="http://www.w3.org/2000/svg">
<g filter="url(#filter0_d_7_1347)">
<rect x="8" y="8" width="395" height="288" rx="5" fill="white"/>
</g>
<rect x="277" y="187" width="15" height="15" fill="#29BB9C"/>
<path d="M305.227 194.182C305.227 195.409 305.006 196.47 304.562 197.364C304.119 198.258 303.511 198.947 302.739 199.432C301.966 199.917 301.083 200.159 300.091 200.159C299.098 200.159 298.216 199.917 297.443 199.432C296.67 198.947 296.063 198.258 295.619 197.364C295.176 196.47 294.955 195.409 294.955 194.182C294.955 192.955 295.176 191.894 295.619 191C296.063 190.106 296.67 189.417 297.443 188.932C298.216 188.447 299.098 188.205 300.091 188.205C301.083 188.205 301.966 188.447 302.739 188.932C303.511 189.417 304.119 190.106 304.562 191C305.006 191.894 305.227 192.955 305.227 194.182ZM303.864 194.182C303.864 193.174 303.695 192.324 303.358 191.631C303.025 190.938 302.572 190.413 302 190.057C301.432 189.701 300.795 189.523 300.091 189.523C299.386 189.523 298.748 189.701 298.176 190.057C297.608 190.413 297.155 190.938 296.818 191.631C296.485 192.324 296.318 193.174 296.318 194.182C296.318 195.189 296.485 196.04 296.818 196.733C297.155 197.426 297.608 197.951 298.176 198.307C298.748 198.663 299.386 198.841 300.091 198.841C300.795 198.841 301.432 198.663 302 198.307C302.572 197.951 303.025 197.426 303.358 196.733C303.695 196.04 303.864 195.189 303.864 194.182ZM312.915 196.432V191.273H314.256V200H312.915V198.523H312.824C312.619 198.966 312.301 199.343 311.869 199.653C311.438 199.96 310.892 200.114 310.233 200.114C309.688 200.114 309.203 199.994 308.778 199.756C308.354 199.513 308.021 199.15 307.778 198.665C307.536 198.176 307.415 197.561 307.415 196.818V191.273H308.756V196.727C308.756 197.364 308.934 197.871 309.29 198.25C309.65 198.629 310.108 198.818 310.665 198.818C310.998 198.818 311.337 198.733 311.682 198.562C312.03 198.392 312.322 198.131 312.557 197.778C312.795 197.426 312.915 196.977 312.915 196.432ZM320.507 191.273V192.409H315.984V191.273H320.507ZM317.303 189.182H318.643V197.5C318.643 197.879 318.698 198.163 318.808 198.352C318.922 198.538 319.066 198.663 319.24 198.727C319.418 198.788 319.606 198.818 319.803 198.818C319.95 198.818 320.071 198.811 320.166 198.795C320.261 198.777 320.337 198.761 320.393 198.75L320.666 199.955C320.575 199.989 320.448 200.023 320.286 200.057C320.123 200.095 319.916 200.114 319.666 200.114C319.287 200.114 318.916 200.032 318.553 199.869C318.193 199.706 317.893 199.458 317.655 199.125C317.42 198.792 317.303 198.371 317.303 197.864V189.182ZM322.524 200V191.273H323.82V192.591H323.911C324.07 192.159 324.357 191.809 324.774 191.54C325.191 191.271 325.661 191.136 326.183 191.136C326.282 191.136 326.405 191.138 326.553 191.142C326.7 191.146 326.812 191.152 326.888 191.159V192.523C326.842 192.511 326.738 192.494 326.575 192.472C326.416 192.445 326.248 192.432 326.07 192.432C325.645 192.432 325.267 192.521 324.933 192.699C324.604 192.873 324.342 193.116 324.149 193.426C323.96 193.733 323.865 194.083 323.865 194.477V200H322.524ZM331.757 200.182C330.969 200.182 330.278 199.994 329.683 199.619C329.092 199.244 328.63 198.72 328.297 198.045C327.967 197.371 327.803 196.583 327.803 195.682C327.803 194.773 327.967 193.979 328.297 193.301C328.63 192.623 329.092 192.097 329.683 191.722C330.278 191.347 330.969 191.159 331.757 191.159C332.545 191.159 333.234 191.347 333.825 191.722C334.42 192.097 334.882 192.623 335.212 193.301C335.545 193.979 335.712 194.773 335.712 195.682C335.712 196.583 335.545 197.371 335.212 198.045C334.882 198.72 334.42 199.244 333.825 199.619C333.234 199.994 332.545 200.182 331.757 200.182ZM331.757 198.977C332.356 198.977 332.848 198.824 333.234 198.517C333.621 198.21 333.907 197.807 334.092 197.307C334.278 196.807 334.371 196.265 334.371 195.682C334.371 195.098 334.278 194.555 334.092 194.051C333.907 193.547 333.621 193.14 333.234 192.83C332.848 192.519 332.356 192.364 331.757 192.364C331.159 192.364 330.666 192.519 330.28 192.83C329.893 193.14 329.607 193.547 329.422 194.051C329.236 194.555 329.143 195.098 329.143 195.682C329.143 196.265 329.236 196.807 329.422 197.307C329.607 197.807 329.893 198.21 330.28 198.517C330.666 198.824 331.159 198.977 331.757 198.977ZM343.94 193.227L342.736 193.568C342.66 193.367 342.548 193.172 342.401 192.983C342.257 192.79 342.06 192.631 341.81 192.506C341.56 192.381 341.24 192.318 340.849 192.318C340.315 192.318 339.87 192.441 339.514 192.688C339.162 192.93 338.986 193.239 338.986 193.614C338.986 193.947 339.107 194.21 339.349 194.403C339.592 194.597 339.971 194.758 340.486 194.886L341.781 195.205C342.562 195.394 343.143 195.684 343.526 196.074C343.908 196.46 344.099 196.958 344.099 197.568C344.099 198.068 343.955 198.515 343.668 198.909C343.384 199.303 342.986 199.614 342.474 199.841C341.963 200.068 341.368 200.182 340.69 200.182C339.8 200.182 339.063 199.989 338.48 199.602C337.897 199.216 337.527 198.652 337.372 197.909L338.645 197.591C338.766 198.061 338.995 198.413 339.332 198.648C339.673 198.883 340.118 199 340.668 199C341.293 199 341.789 198.867 342.156 198.602C342.527 198.333 342.713 198.011 342.713 197.636C342.713 197.333 342.607 197.08 342.395 196.875C342.183 196.667 341.857 196.511 341.418 196.409L339.963 196.068C339.164 195.879 338.577 195.585 338.202 195.188C337.83 194.786 337.645 194.284 337.645 193.682C337.645 193.189 337.783 192.754 338.06 192.375C338.34 191.996 338.721 191.699 339.202 191.483C339.687 191.267 340.236 191.159 340.849 191.159C341.713 191.159 342.391 191.348 342.884 191.727C343.38 192.106 343.732 192.606 343.94 193.227Z" fill="#4157AF"/>
<rect x="277" y="162" width="15" height="15" fill="#F6AF53"/>
<path d="M295.409 175V163.364H302.386V164.614H296.818V168.545H301.864V169.795H296.818V175H295.409ZM307.636 175.182C306.795 175.182 306.07 174.996 305.46 174.625C304.854 174.25 304.386 173.727 304.057 173.057C303.731 172.383 303.568 171.598 303.568 170.705C303.568 169.811 303.731 169.023 304.057 168.341C304.386 167.655 304.845 167.121 305.432 166.739C306.023 166.352 306.712 166.159 307.5 166.159C307.955 166.159 308.403 166.235 308.847 166.386C309.29 166.538 309.693 166.784 310.057 167.125C310.42 167.462 310.71 167.909 310.926 168.466C311.142 169.023 311.25 169.708 311.25 170.523V171.091H304.523V169.932H309.886C309.886 169.439 309.788 169 309.591 168.614C309.398 168.227 309.121 167.922 308.761 167.699C308.405 167.475 307.985 167.364 307.5 167.364C306.966 167.364 306.504 167.496 306.114 167.761C305.727 168.023 305.43 168.364 305.222 168.784C305.013 169.205 304.909 169.655 304.909 170.136V170.909C304.909 171.568 305.023 172.127 305.25 172.585C305.481 173.04 305.801 173.386 306.21 173.625C306.619 173.86 307.095 173.977 307.636 173.977C307.989 173.977 308.307 173.928 308.591 173.83C308.879 173.727 309.127 173.576 309.335 173.375C309.544 173.17 309.705 172.917 309.818 172.614L311.114 172.977C310.977 173.417 310.748 173.803 310.426 174.136C310.104 174.466 309.706 174.723 309.233 174.909C308.759 175.091 308.227 175.182 307.636 175.182ZM313.29 175V166.273H314.585V167.636H314.699C314.881 167.17 315.174 166.809 315.58 166.551C315.985 166.29 316.472 166.159 317.04 166.159C317.616 166.159 318.095 166.29 318.477 166.551C318.864 166.809 319.165 167.17 319.381 167.636H319.472C319.695 167.186 320.03 166.828 320.477 166.562C320.924 166.294 321.46 166.159 322.085 166.159C322.866 166.159 323.504 166.403 324 166.892C324.496 167.377 324.744 168.133 324.744 169.159V175H323.403V169.159C323.403 168.515 323.227 168.055 322.875 167.778C322.523 167.502 322.108 167.364 321.631 167.364C321.017 167.364 320.542 167.549 320.205 167.92C319.867 168.288 319.699 168.754 319.699 169.318V175H318.335V169.023C318.335 168.527 318.174 168.127 317.852 167.824C317.53 167.517 317.116 167.364 316.608 167.364C316.259 167.364 315.934 167.456 315.631 167.642C315.331 167.828 315.089 168.085 314.903 168.415C314.722 168.741 314.631 169.117 314.631 169.545V175H313.29ZM327.196 175V166.273H328.537V175H327.196ZM327.878 164.818C327.616 164.818 327.391 164.729 327.202 164.551C327.016 164.373 326.923 164.159 326.923 163.909C326.923 163.659 327.016 163.445 327.202 163.267C327.391 163.089 327.616 163 327.878 163C328.139 163 328.363 163.089 328.548 163.267C328.738 163.445 328.832 163.659 328.832 163.909C328.832 164.159 328.738 164.373 328.548 164.551C328.363 164.729 328.139 164.818 327.878 164.818ZM332.334 169.75V175H330.993V166.273H332.288V167.636H332.402C332.607 167.193 332.917 166.837 333.334 166.568C333.75 166.295 334.288 166.159 334.947 166.159C335.538 166.159 336.055 166.28 336.499 166.523C336.942 166.761 337.286 167.125 337.533 167.614C337.779 168.098 337.902 168.712 337.902 169.455V175H336.561V169.545C336.561 168.86 336.383 168.326 336.027 167.943C335.671 167.557 335.182 167.364 334.561 167.364C334.133 167.364 333.75 167.456 333.413 167.642C333.08 167.828 332.817 168.098 332.624 168.455C332.43 168.811 332.334 169.242 332.334 169.75ZM340.352 175V166.273H341.693V175H340.352ZM341.034 164.818C340.773 164.818 340.547 164.729 340.358 164.551C340.172 164.373 340.08 164.159 340.08 163.909C340.08 163.659 340.172 163.445 340.358 163.267C340.547 163.089 340.773 163 341.034 163C341.295 163 341.519 163.089 341.705 163.267C341.894 163.445 341.989 163.659 341.989 163.909C341.989 164.159 341.894 164.373 341.705 164.551C341.519 164.729 341.295 164.818 341.034 164.818ZM345.49 169.75V175H344.149V166.273H345.445V167.636H345.558C345.763 167.193 346.073 166.837 346.49 166.568C346.907 166.295 347.445 166.159 348.104 166.159C348.695 166.159 349.212 166.28 349.655 166.523C350.098 166.761 350.443 167.125 350.689 167.614C350.935 168.098 351.058 168.712 351.058 169.455V175H349.717V169.545C349.717 168.86 349.539 168.326 349.183 167.943C348.827 167.557 348.339 167.364 347.717 167.364C347.289 167.364 346.907 167.456 346.57 167.642C346.236 167.828 345.973 168.098 345.78 168.455C345.587 168.811 345.49 169.242 345.49 169.75ZM357.054 175.182C356.266 175.182 355.575 174.994 354.98 174.619C354.389 174.244 353.927 173.72 353.594 173.045C353.264 172.371 353.099 171.583 353.099 170.682C353.099 169.773 353.264 168.979 353.594 168.301C353.927 167.623 354.389 167.097 354.98 166.722C355.575 166.347 356.266 166.159 357.054 166.159C357.842 166.159 358.531 166.347 359.122 166.722C359.717 167.097 360.179 167.623 360.509 168.301C360.842 168.979 361.009 169.773 361.009 170.682C361.009 171.583 360.842 172.371 360.509 173.045C360.179 173.72 359.717 174.244 359.122 174.619C358.531 174.994 357.842 175.182 357.054 175.182ZM357.054 173.977C357.652 173.977 358.145 173.824 358.531 173.517C358.918 173.21 359.204 172.807 359.389 172.307C359.575 171.807 359.668 171.265 359.668 170.682C359.668 170.098 359.575 169.555 359.389 169.051C359.204 168.547 358.918 168.14 358.531 167.83C358.145 167.519 357.652 167.364 357.054 167.364C356.455 167.364 355.963 167.519 355.577 167.83C355.19 168.14 354.904 168.547 354.719 169.051C354.533 169.555 354.44 170.098 354.44 170.682C354.44 171.265 354.533 171.807 354.719 172.307C354.904 172.807 355.19 173.21 355.577 173.517C355.963 173.824 356.455 173.977 357.054 173.977Z" fill="#4157AF"/>
<rect x="277" y="137" width="15" height="15" fill="#5B45CB"/>
<path d="M295.409 138.364H297.091L301.045 148.023H301.182L305.136 138.364H306.818V150H305.5V141.159H305.386L301.75 150H300.477L296.841 141.159H296.727V150H295.409V138.364ZM312.03 150.205C311.477 150.205 310.975 150.1 310.524 149.892C310.073 149.68 309.715 149.375 309.45 148.977C309.185 148.576 309.053 148.091 309.053 147.523C309.053 147.023 309.151 146.617 309.348 146.307C309.545 145.992 309.808 145.746 310.138 145.568C310.467 145.39 310.831 145.258 311.229 145.17C311.63 145.08 312.034 145.008 312.439 144.955C312.969 144.886 313.399 144.835 313.729 144.801C314.062 144.763 314.304 144.701 314.456 144.614C314.611 144.527 314.689 144.375 314.689 144.159V144.114C314.689 143.553 314.536 143.117 314.229 142.807C313.926 142.496 313.465 142.341 312.848 142.341C312.208 142.341 311.706 142.481 311.342 142.761C310.979 143.042 310.723 143.341 310.575 143.659L309.303 143.205C309.53 142.674 309.833 142.261 310.212 141.966C310.594 141.667 311.011 141.458 311.462 141.341C311.916 141.22 312.363 141.159 312.803 141.159C313.083 141.159 313.405 141.193 313.768 141.261C314.136 141.326 314.49 141.46 314.831 141.665C315.176 141.869 315.462 142.178 315.689 142.591C315.916 143.004 316.03 143.557 316.03 144.25V150H314.689V148.818H314.621C314.53 149.008 314.378 149.21 314.166 149.426C313.954 149.642 313.672 149.826 313.32 149.977C312.967 150.129 312.537 150.205 312.03 150.205ZM312.234 149C312.765 149 313.212 148.896 313.575 148.688C313.943 148.479 314.219 148.21 314.405 147.881C314.594 147.551 314.689 147.205 314.689 146.841V145.614C314.632 145.682 314.507 145.744 314.314 145.801C314.125 145.854 313.905 145.902 313.655 145.943C313.409 145.981 313.168 146.015 312.933 146.045C312.702 146.072 312.515 146.095 312.371 146.114C312.022 146.159 311.696 146.233 311.393 146.335C311.094 146.434 310.852 146.583 310.666 146.784C310.484 146.981 310.393 147.25 310.393 147.591C310.393 148.057 310.566 148.409 310.911 148.648C311.259 148.883 311.7 149 312.234 149ZM324.659 143.227L323.455 143.568C323.379 143.367 323.267 143.172 323.119 142.983C322.975 142.79 322.778 142.631 322.528 142.506C322.278 142.381 321.958 142.318 321.568 142.318C321.034 142.318 320.589 142.441 320.233 142.688C319.881 142.93 319.705 143.239 319.705 143.614C319.705 143.947 319.826 144.21 320.068 144.403C320.311 144.597 320.689 144.758 321.205 144.886L322.5 145.205C323.28 145.394 323.862 145.684 324.244 146.074C324.627 146.46 324.818 146.958 324.818 147.568C324.818 148.068 324.674 148.515 324.386 148.909C324.102 149.303 323.705 149.614 323.193 149.841C322.682 150.068 322.087 150.182 321.409 150.182C320.519 150.182 319.782 149.989 319.199 149.602C318.616 149.216 318.246 148.652 318.091 147.909L319.364 147.591C319.485 148.061 319.714 148.413 320.051 148.648C320.392 148.883 320.837 149 321.386 149C322.011 149 322.508 148.867 322.875 148.602C323.246 148.333 323.432 148.011 323.432 147.636C323.432 147.333 323.326 147.08 323.114 146.875C322.902 146.667 322.576 146.511 322.136 146.409L320.682 146.068C319.883 145.879 319.295 145.585 318.92 145.188C318.549 144.786 318.364 144.284 318.364 143.682C318.364 143.189 318.502 142.754 318.778 142.375C319.059 141.996 319.439 141.699 319.92 141.483C320.405 141.267 320.955 141.159 321.568 141.159C322.432 141.159 323.11 141.348 323.602 141.727C324.098 142.106 324.451 142.606 324.659 143.227ZM330.382 150.182C329.564 150.182 328.859 149.989 328.268 149.602C327.678 149.216 327.223 148.684 326.905 148.006C326.587 147.328 326.428 146.553 326.428 145.682C326.428 144.795 326.59 144.013 326.916 143.335C327.246 142.653 327.704 142.121 328.291 141.739C328.882 141.352 329.571 141.159 330.359 141.159C330.973 141.159 331.526 141.273 332.018 141.5C332.511 141.727 332.914 142.045 333.229 142.455C333.543 142.864 333.738 143.341 333.814 143.886H332.473C332.371 143.489 332.143 143.136 331.791 142.83C331.443 142.519 330.973 142.364 330.382 142.364C329.859 142.364 329.401 142.5 329.007 142.773C328.617 143.042 328.312 143.422 328.092 143.915C327.876 144.403 327.768 144.977 327.768 145.636C327.768 146.311 327.875 146.898 328.087 147.398C328.303 147.898 328.606 148.286 328.996 148.562C329.39 148.839 329.852 148.977 330.382 148.977C330.731 148.977 331.047 148.917 331.331 148.795C331.615 148.674 331.856 148.5 332.053 148.273C332.25 148.045 332.39 147.773 332.473 147.455H333.814C333.738 147.97 333.551 148.434 333.251 148.847C332.956 149.256 332.564 149.581 332.075 149.824C331.59 150.062 331.026 150.182 330.382 150.182ZM341.274 146.432V141.273H342.615V150H341.274V148.523H341.183C340.979 148.966 340.661 149.343 340.229 149.653C339.797 149.96 339.251 150.114 338.592 150.114C338.047 150.114 337.562 149.994 337.138 149.756C336.714 149.513 336.38 149.15 336.138 148.665C335.895 148.176 335.774 147.561 335.774 146.818V141.273H337.115V146.727C337.115 147.364 337.293 147.871 337.649 148.25C338.009 148.629 338.467 148.818 339.024 148.818C339.357 148.818 339.696 148.733 340.041 148.562C340.39 148.392 340.681 148.131 340.916 147.778C341.155 147.426 341.274 146.977 341.274 146.432ZM346.412 138.364V150H345.071V138.364H346.412ZM348.868 150V141.273H350.209V150H348.868ZM349.55 139.818C349.288 139.818 349.063 139.729 348.874 139.551C348.688 139.373 348.595 139.159 348.595 138.909C348.595 138.659 348.688 138.445 348.874 138.267C349.063 138.089 349.288 138 349.55 138C349.811 138 350.035 138.089 350.22 138.267C350.41 138.445 350.504 138.659 350.504 138.909C350.504 139.159 350.41 139.373 350.22 139.551C350.035 139.729 349.811 139.818 349.55 139.818ZM354.006 144.75V150H352.665V141.273H353.96V142.636H354.074C354.278 142.193 354.589 141.837 355.006 141.568C355.422 141.295 355.96 141.159 356.619 141.159C357.21 141.159 357.727 141.28 358.17 141.523C358.614 141.761 358.958 142.125 359.205 142.614C359.451 143.098 359.574 143.712 359.574 144.455V150H358.233V144.545C358.233 143.86 358.055 143.326 357.699 142.943C357.343 142.557 356.854 142.364 356.233 142.364C355.805 142.364 355.422 142.456 355.085 142.642C354.752 142.828 354.489 143.098 354.295 143.455C354.102 143.811 354.006 144.242 354.006 144.75ZM365.57 150.182C364.782 150.182 364.09 149.994 363.496 149.619C362.905 149.244 362.443 148.72 362.109 148.045C361.78 147.371 361.615 146.583 361.615 145.682C361.615 144.773 361.78 143.979 362.109 143.301C362.443 142.623 362.905 142.097 363.496 141.722C364.09 141.347 364.782 141.159 365.57 141.159C366.357 141.159 367.047 141.347 367.638 141.722C368.232 142.097 368.695 142.623 369.024 143.301C369.357 143.979 369.524 144.773 369.524 145.682C369.524 146.583 369.357 147.371 369.024 148.045C368.695 148.72 368.232 149.244 367.638 149.619C367.047 149.994 366.357 150.182 365.57 150.182ZM365.57 148.977C366.168 148.977 366.661 148.824 367.047 148.517C367.433 148.21 367.719 147.807 367.905 147.307C368.09 146.807 368.183 146.265 368.183 145.682C368.183 145.098 368.09 144.555 367.905 144.051C367.719 143.547 367.433 143.14 367.047 142.83C366.661 142.519 366.168 142.364 365.57 142.364C364.971 142.364 364.479 142.519 364.092 142.83C363.706 143.14 363.42 143.547 363.234 144.051C363.049 144.555 362.956 145.098 362.956 145.682C362.956 146.265 363.049 146.807 363.234 147.307C363.42 147.807 363.706 148.21 364.092 148.517C364.479 148.824 364.971 148.977 365.57 148.977Z" fill="#4157AF"/>
<path d="M222.458 163.884C222.458 149.194 218.413 134.789 210.768 122.246C203.123 109.703 192.172 99.5077 179.116 92.7767C166.059 86.0458 151.402 83.0395 136.75 84.0874C122.099 85.1353 108.018 90.1969 96.053 98.7175L142.458 163.884H222.458Z" fill="#5B45CB" stroke="white"/>
<path d="M96.053 98.7175C84.5145 106.934 75.3644 118.067 69.5381 130.978C63.7118 143.89 61.4181 158.117 62.8915 172.205C64.3649 186.293 69.5525 199.738 77.9242 211.164C86.2959 222.591 97.5514 231.589 110.54 237.241L142.458 163.884L96.053 98.7175Z" fill="#29BB9C" stroke="white"/>
<path d="M110.54 237.241C122.714 242.537 136.014 244.721 149.242 243.595C162.47 242.469 175.21 238.069 186.313 230.792C197.416 223.514 206.534 213.587 212.844 201.907C219.154 190.226 222.458 177.159 222.458 163.884H142.458L110.54 237.241Z" fill="#F6AF53" stroke="white"/>
<path d="M179.116 92.7767L188.28 75L179.116 92.7767Z" fill="#5B45CB"/>
<path d="M179.116 92.7767L188.28 75" stroke="#1AA69E"/>
<path d="M191.979 75.1193C191.394 75.1193 190.877 75.0156 190.428 74.8082C189.982 74.598 189.634 74.3097 189.384 73.9432C189.134 73.5739 189.01 73.1534 189.013 72.6818C189.01 72.3125 189.083 71.9716 189.23 71.6591C189.378 71.3437 189.58 71.081 189.836 70.8707C190.094 70.6577 190.382 70.5227 190.701 70.4659V70.4148C190.283 70.3068 189.951 70.0724 189.704 69.7116C189.456 69.348 189.334 68.9347 189.337 68.4716C189.334 68.0284 189.446 67.6321 189.674 67.2827C189.901 66.9332 190.213 66.6577 190.611 66.456C191.012 66.2543 191.468 66.1534 191.979 66.1534C192.485 66.1534 192.936 66.2543 193.334 66.456C193.732 66.6577 194.044 66.9332 194.272 67.2827C194.502 67.6321 194.618 68.0284 194.621 68.4716C194.618 68.9347 194.492 69.348 194.242 69.7116C193.995 70.0724 193.667 70.3068 193.257 70.4148V70.4659C193.573 70.5227 193.857 70.6577 194.11 70.8707C194.363 71.081 194.564 71.3437 194.715 71.6591C194.865 71.9716 194.942 72.3125 194.945 72.6818C194.942 73.1534 194.814 73.5739 194.561 73.9432C194.311 74.3097 193.963 74.598 193.517 74.8082C193.074 75.0156 192.561 75.1193 191.979 75.1193ZM191.979 74.1818C192.374 74.1818 192.715 74.1179 193.002 73.9901C193.289 73.8622 193.51 73.6818 193.667 73.4489C193.823 73.2159 193.902 72.9432 193.905 72.6307C193.902 72.3011 193.817 72.0099 193.65 71.7571C193.482 71.5043 193.253 71.3054 192.963 71.1605C192.677 71.0156 192.348 70.9432 191.979 70.9432C191.607 70.9432 191.275 71.0156 190.982 71.1605C190.692 71.3054 190.463 71.5043 190.296 71.7571C190.131 72.0099 190.05 72.3011 190.053 72.6307C190.05 72.9432 190.125 73.2159 190.279 73.4489C190.435 73.6818 190.658 73.8622 190.948 73.9901C191.238 74.1179 191.581 74.1818 191.979 74.1818ZM191.979 70.0398C192.292 70.0398 192.569 69.9773 192.81 69.8523C193.054 69.7273 193.246 69.5526 193.385 69.3281C193.525 69.1037 193.596 68.8409 193.598 68.5398C193.596 68.2443 193.526 67.9872 193.39 67.7685C193.253 67.5469 193.064 67.3764 192.823 67.2571C192.581 67.1349 192.3 67.0739 191.979 67.0739C191.652 67.0739 191.367 67.1349 191.123 67.2571C190.878 67.3764 190.689 67.5469 190.556 67.7685C190.422 67.9872 190.357 68.2443 190.36 68.5398C190.357 68.8409 190.424 69.1037 190.56 69.3281C190.699 69.5526 190.891 69.7273 191.135 69.8523C191.38 69.9773 191.661 70.0398 191.979 70.0398ZM199.305 75.1193C198.805 75.1193 198.355 75.0199 197.955 74.821C197.554 74.6222 197.233 74.3494 196.992 74.0028C196.75 73.6562 196.618 73.2614 196.595 72.8182H197.618C197.658 73.2131 197.837 73.5398 198.155 73.7983C198.476 74.054 198.859 74.1818 199.305 74.1818C199.663 74.1818 199.982 74.098 200.26 73.9304C200.541 73.7628 200.761 73.5327 200.92 73.2401C201.082 72.9446 201.163 72.6108 201.163 72.2386C201.163 71.858 201.08 71.5185 200.912 71.2202C200.747 70.919 200.52 70.6818 200.23 70.5085C199.94 70.3352 199.609 70.2472 199.237 70.2443C198.97 70.2415 198.696 70.2827 198.415 70.3679C198.134 70.4503 197.902 70.5568 197.72 70.6875L196.732 70.5682L197.26 66.2727H201.794V67.2102H198.146L197.84 69.7841H197.891C198.07 69.642 198.294 69.5241 198.564 69.4304C198.834 69.3366 199.115 69.2898 199.408 69.2898C199.942 69.2898 200.418 69.4176 200.835 69.6733C201.256 69.9261 201.585 70.2727 201.824 70.7131C202.065 71.1534 202.186 71.6562 202.186 72.2216C202.186 72.7784 202.061 73.2756 201.811 73.7131C201.564 74.1477 201.223 74.4915 200.788 74.7443C200.354 74.9943 199.859 75.1193 199.305 75.1193ZM206.947 66.2727V75H205.89V67.3807H205.839L203.708 68.7955V67.7216L205.89 66.2727H206.947Z" fill="#5B45CB"/>
<path d="M62.8915 172.205L43 174.285L62.8915 172.205Z" fill="#29BB9C"/>
<path d="M62.8915 172.205L43 174.285" stroke="#1AA69E"/>
<path d="M26.4606 174.405C25.8754 174.405 25.3583 174.301 24.9094 174.093C24.4634 173.883 24.1154 173.595 23.8654 173.228C23.6154 172.859 23.4918 172.439 23.4947 171.967C23.4918 171.598 23.5643 171.257 23.712 170.944C23.8597 170.629 24.0614 170.366 24.3171 170.156C24.5756 169.943 24.864 169.808 25.1822 169.751V169.7C24.7646 169.592 24.4322 169.358 24.185 168.997C23.9379 168.633 23.8157 168.22 23.8185 167.757C23.8157 167.314 23.9279 166.917 24.1552 166.568C24.3825 166.218 24.695 165.943 25.0927 165.741C25.4933 165.539 25.9492 165.439 26.4606 165.439C26.9663 165.439 27.418 165.539 27.8157 165.741C28.2134 165.943 28.5259 166.218 28.7532 166.568C28.9833 166.917 29.0998 167.314 29.1026 167.757C29.0998 168.22 28.9734 168.633 28.7234 168.997C28.4762 169.358 28.1481 169.592 27.739 169.7V169.751C28.0543 169.808 28.3384 169.943 28.5913 170.156C28.8441 170.366 29.0458 170.629 29.1964 170.944C29.3469 171.257 29.4237 171.598 29.4265 171.967C29.4237 172.439 29.2958 172.859 29.043 173.228C28.793 173.595 28.445 173.883 27.9989 174.093C27.5558 174.301 27.043 174.405 26.4606 174.405ZM26.4606 173.467C26.8555 173.467 27.1964 173.403 27.4833 173.275C27.7702 173.147 27.9918 172.967 28.1481 172.734C28.3043 172.501 28.3839 172.228 28.3867 171.916C28.3839 171.586 28.2987 171.295 28.131 171.042C27.9634 170.789 27.7347 170.591 27.445 170.446C27.158 170.301 26.8299 170.228 26.4606 170.228C26.0884 170.228 25.756 170.301 25.4634 170.446C25.1737 170.591 24.945 170.789 24.7773 171.042C24.6126 171.295 24.5316 171.586 24.5344 171.916C24.5316 172.228 24.6069 172.501 24.7603 172.734C24.9165 172.967 25.1396 173.147 25.4293 173.275C25.7191 173.403 26.0629 173.467 26.4606 173.467ZM26.4606 169.325C26.7731 169.325 27.0501 169.262 27.2915 169.137C27.5359 169.012 27.7276 168.838 27.8668 168.613C28.006 168.389 28.0771 168.126 28.0799 167.825C28.0771 167.53 28.0075 167.272 27.8711 167.054C27.7347 166.832 27.5458 166.662 27.3043 166.542C27.0629 166.42 26.7816 166.359 26.4606 166.359C26.1339 166.359 25.8484 166.42 25.604 166.542C25.3597 166.662 25.1708 166.832 25.0373 167.054C24.9038 167.272 24.8384 167.53 24.8413 167.825C24.8384 168.126 24.9052 168.389 25.0415 168.613C25.1808 168.838 25.3725 169.012 25.6168 169.137C25.8612 169.262 26.1424 169.325 26.4606 169.325ZM31.0597 174.285V173.518L33.9403 170.365C34.2784 169.995 34.5568 169.674 34.7756 169.402C34.9943 169.126 35.1563 168.868 35.2614 168.626C35.3693 168.382 35.4233 168.126 35.4233 167.859C35.4233 167.552 35.3494 167.287 35.2017 167.062C35.0568 166.838 34.858 166.664 34.6051 166.542C34.3523 166.42 34.0682 166.359 33.7528 166.359C33.4176 166.359 33.125 166.429 32.875 166.568C32.6278 166.704 32.4361 166.896 32.2997 167.143C32.1662 167.39 32.0994 167.68 32.0994 168.012H31.0938C31.0938 167.501 31.2116 167.052 31.4474 166.666C31.6832 166.28 32.0043 165.978 32.4105 165.762C32.8196 165.547 33.2784 165.439 33.7869 165.439C34.2983 165.439 34.7514 165.547 35.1463 165.762C35.5412 165.978 35.8509 166.27 36.0753 166.636C36.2997 167.003 36.4119 167.41 36.4119 167.859C36.4119 168.18 36.3537 168.494 36.2372 168.801C36.1236 169.105 35.9247 169.444 35.6406 169.819C35.3594 170.191 34.9688 170.646 34.4688 171.183L32.5085 173.28V173.348H36.5653V174.285H31.0597ZM41.3935 165.558V174.285H40.3366V166.666H40.2855L38.1548 168.081V167.007L40.3366 165.558H41.3935Z" fill="#29BB9C"/>
<path d="M186.313 230.792L197.277 247.519" stroke="#1AA69E"/>
<path d="M198.453 247.519L202.357 239.797V239.729H197.857V238.791H203.447V239.78L199.561 247.519H198.453ZM205.543 247.519L209.446 239.797V239.729H204.946V238.791H210.537V239.78L206.651 247.519H205.543ZM214.785 247.638C214.143 247.638 213.596 247.463 213.144 247.114C212.692 246.762 212.347 246.252 212.109 245.584C211.87 244.914 211.751 244.104 211.751 243.155C211.751 242.212 211.87 241.406 212.109 240.739C212.35 240.068 212.697 239.557 213.148 239.205C213.603 238.85 214.148 238.672 214.785 238.672C215.421 238.672 215.965 238.85 216.417 239.205C216.871 239.557 217.218 240.068 217.457 240.739C217.698 241.406 217.819 242.212 217.819 243.155C217.819 244.104 217.7 244.914 217.461 245.584C217.222 246.252 216.877 246.762 216.425 247.114C215.974 247.463 215.427 247.638 214.785 247.638ZM214.785 246.7C215.421 246.7 215.916 246.394 216.268 245.78C216.62 245.166 216.796 244.291 216.796 243.155C216.796 242.399 216.715 241.756 216.553 241.225C216.394 240.693 216.164 240.289 215.863 240.01C215.565 239.732 215.205 239.592 214.785 239.592C214.154 239.592 213.661 239.904 213.306 240.526C212.951 241.145 212.773 242.021 212.773 243.155C212.773 243.911 212.853 244.553 213.012 245.081C213.171 245.61 213.4 246.012 213.698 246.287C213.999 246.563 214.362 246.7 214.785 246.7Z" fill="#F6AF53"/>
<path d="M185.727 30.125C185.648 29.8485 185.536 29.6042 185.392 29.392C185.248 29.1761 185.072 28.9943 184.864 28.8466C184.659 28.6951 184.424 28.5795 184.159 28.5C183.898 28.4205 183.608 28.3807 183.29 28.3807C182.695 28.3807 182.172 28.5284 181.722 28.8239C181.275 29.1193 180.926 29.5492 180.676 30.1136C180.426 30.6742 180.301 31.3598 180.301 32.1705C180.301 32.9811 180.424 33.6705 180.67 34.2386C180.917 34.8068 181.265 35.2405 181.716 35.5398C182.167 35.8352 182.699 35.983 183.312 35.983C183.869 35.983 184.345 35.8845 184.739 35.6875C185.136 35.4867 185.439 35.2045 185.648 34.8409C185.86 34.4773 185.966 34.0473 185.966 33.5511L186.466 33.625H183.466V31.7727H188.335V33.2386C188.335 34.2614 188.119 35.1402 187.688 35.875C187.256 36.6061 186.661 37.1705 185.903 37.5682C185.146 37.9621 184.278 38.1591 183.301 38.1591C182.21 38.1591 181.252 37.9186 180.426 37.4375C179.6 36.9527 178.956 36.2652 178.494 35.375C178.036 34.4811 177.807 33.4205 177.807 32.1932C177.807 31.25 177.943 30.4091 178.216 29.6705C178.492 28.928 178.879 28.2992 179.375 27.7841C179.871 27.2689 180.449 26.8769 181.108 26.608C181.767 26.339 182.481 26.2045 183.25 26.2045C183.909 26.2045 184.523 26.3011 185.091 26.4943C185.659 26.6837 186.163 26.9527 186.602 27.3011C187.045 27.6496 187.407 28.0644 187.688 28.5455C187.968 29.0227 188.148 29.5492 188.227 30.125H185.727ZM194.115 38.1705C193.217 38.1705 192.445 37.9886 191.797 37.625C191.153 37.2576 190.657 36.7386 190.308 36.0682C189.96 35.3939 189.786 34.5966 189.786 33.6761C189.786 32.7784 189.96 31.9905 190.308 31.3125C190.657 30.6345 191.147 30.1061 191.78 29.7273C192.416 29.3485 193.162 29.1591 194.018 29.1591C194.594 29.1591 195.13 29.2519 195.626 29.4375C196.126 29.6193 196.562 29.8939 196.933 30.2614C197.308 30.6288 197.6 31.0909 197.808 31.6477C198.017 32.2008 198.121 32.8485 198.121 33.5909V34.2557H190.751V32.7557H195.842C195.842 32.4072 195.767 32.0985 195.615 31.8295C195.464 31.5606 195.253 31.3504 194.984 31.1989C194.719 31.0436 194.411 30.9659 194.058 30.9659C193.691 30.9659 193.365 31.0511 193.081 31.2216C192.801 31.3883 192.581 31.6136 192.422 31.8977C192.263 32.178 192.181 32.4905 192.178 32.8352V34.2614C192.178 34.6932 192.257 35.0663 192.416 35.3807C192.579 35.6951 192.808 35.9375 193.104 36.108C193.399 36.2784 193.75 36.3636 194.155 36.3636C194.424 36.3636 194.67 36.3258 194.893 36.25C195.117 36.1742 195.308 36.0606 195.467 35.9091C195.626 35.7576 195.748 35.572 195.831 35.3523L198.07 35.5C197.956 36.0379 197.723 36.5076 197.371 36.9091C197.022 37.3068 196.571 37.6174 196.018 37.8409C195.469 38.0606 194.835 38.1705 194.115 38.1705ZM195.104 28.2273L193.962 26.8409L192.82 28.2273H190.757V28.1477L193.058 25.6477H194.859L197.166 28.1477V28.2273H195.104ZM202.121 32.9545V38H199.7V29.2727H202.007V30.8125H202.109C202.303 30.3049 202.626 29.9034 203.081 29.608C203.536 29.3087 204.087 29.1591 204.734 29.1591C205.34 29.1591 205.869 29.2917 206.32 29.5568C206.77 29.822 207.121 30.2008 207.371 30.6932C207.621 31.1818 207.746 31.7652 207.746 32.4432V38H205.325V32.875C205.329 32.3409 205.193 31.9242 204.916 31.625C204.64 31.322 204.259 31.1705 203.774 31.1705C203.448 31.1705 203.161 31.2405 202.911 31.3807C202.664 31.5208 202.471 31.7254 202.331 31.9943C202.195 32.2595 202.125 32.5795 202.121 32.9545ZM213.631 38.1705C212.733 38.1705 211.96 37.9886 211.312 37.625C210.669 37.2576 210.172 36.7386 209.824 36.0682C209.475 35.3939 209.301 34.5966 209.301 33.6761C209.301 32.7784 209.475 31.9905 209.824 31.3125C210.172 30.6345 210.663 30.1061 211.295 29.7273C211.932 29.3485 212.678 29.1591 213.534 29.1591C214.11 29.1591 214.646 29.2519 215.142 29.4375C215.642 29.6193 216.078 29.8939 216.449 30.2614C216.824 30.6288 217.116 31.0909 217.324 31.6477C217.532 32.2008 217.636 32.8485 217.636 33.5909V34.2557H210.267V32.7557H215.358C215.358 32.4072 215.282 32.0985 215.131 31.8295C214.979 31.5606 214.769 31.3504 214.5 31.1989C214.235 31.0436 213.926 30.9659 213.574 30.9659C213.206 30.9659 212.881 31.0511 212.597 31.2216C212.316 31.3883 212.097 31.6136 211.938 31.8977C211.778 32.178 211.697 32.4905 211.693 32.8352V34.2614C211.693 34.6932 211.773 35.0663 211.932 35.3807C212.095 35.6951 212.324 35.9375 212.619 36.108C212.915 36.2784 213.265 36.3636 213.67 36.3636C213.939 36.3636 214.186 36.3258 214.409 36.25C214.633 36.1742 214.824 36.0606 214.983 35.9091C215.142 35.7576 215.263 35.572 215.347 35.3523L217.585 35.5C217.472 36.0379 217.239 36.5076 216.886 36.9091C216.538 37.3068 216.087 37.6174 215.534 37.8409C214.985 38.0606 214.35 38.1705 213.631 38.1705ZM219.216 38V29.2727H221.562V30.7955H221.653C221.813 30.2538 222.08 29.8447 222.455 29.5682C222.83 29.2879 223.261 29.1477 223.75 29.1477C223.871 29.1477 224.002 29.1553 224.142 29.1705C224.282 29.1856 224.405 29.2064 224.511 29.233V31.3807C224.398 31.3466 224.241 31.3163 224.04 31.2898C223.839 31.2633 223.655 31.25 223.489 31.25C223.133 31.25 222.814 31.3277 222.534 31.483C222.258 31.6345 222.038 31.8466 221.875 32.1193C221.716 32.392 221.636 32.7064 221.636 33.0625V38H219.216ZM229.3 38.1705C228.417 38.1705 227.654 37.983 227.01 37.608C226.37 37.2292 225.875 36.7027 225.527 36.0284C225.179 35.3504 225.004 34.5644 225.004 33.6705C225.004 32.7689 225.179 31.9811 225.527 31.3068C225.875 30.6288 226.37 30.1023 227.01 29.7273C227.654 29.3485 228.417 29.1591 229.3 29.1591C230.182 29.1591 230.944 29.3485 231.584 29.7273C232.228 30.1023 232.724 30.6288 233.072 31.3068C233.421 31.9811 233.595 32.7689 233.595 33.6705C233.595 34.5644 233.421 35.3504 233.072 36.0284C232.724 36.7027 232.228 37.2292 231.584 37.608C230.944 37.983 230.182 38.1705 229.3 38.1705ZM229.311 36.2955C229.713 36.2955 230.048 36.1818 230.317 35.9545C230.586 35.7235 230.788 35.4091 230.925 35.0114C231.065 34.6136 231.135 34.161 231.135 33.6534C231.135 33.1458 231.065 32.6932 230.925 32.2955C230.788 31.8977 230.586 31.5833 230.317 31.3523C230.048 31.1212 229.713 31.0057 229.311 31.0057C228.906 31.0057 228.565 31.1212 228.288 31.3523C228.016 31.5833 227.809 31.8977 227.669 32.2955C227.533 32.6932 227.464 33.1458 227.464 33.6534C227.464 34.161 227.533 34.6136 227.669 35.0114C227.809 35.4091 228.016 35.7235 228.288 35.9545C228.565 36.1818 228.906 36.2955 229.311 36.2955Z" fill="#4157AF"/>
<defs>
<filter id="filter0_d_7_1347" x="0" y="0" width="415" height="308" filterUnits="userSpaceOnUse" color-interpolation-filters="sRGB">
<feFlood flood-opacity="0" result="BackgroundImageFix"/>
<feColorMatrix in="SourceAlpha" type="matrix" values="0 0 0 0 0 0 0 0 0 0 0 0 0 0 0 0 0 0 127 0" result="hardAlpha"/>
<feOffset dx="2" dy="2"/>
<feGaussianBlur stdDeviation="5"/>
<feComposite in2="hardAlpha" operator="out"/>
<feColorMatrix type="matrix" values="0 0 0 0 0 0 0 0 0 0 0 0 0 0 0 0 0 0 0.1 0"/>
<feBlend mode="normal" in2="BackgroundImageFix" result="effect1_dropShadow_7_1347"/>
<feBlend mode="normal" in="SourceGraphic" in2="effect1_dropShadow_7_1347" result="shape"/>
</filter>
</defs>
</svg>